<?xml version="1.0" encoding="UTF-8" standalone="no"?>
<!-- Created with Inkscape (http://www.inkscape.org/) -->

<svg
   xmlns:dc="http://purl.org/dc/elements/1.1/"
   xmlns:cc="http://creativecommons.org/ns#"
   xmlns:rdf="http://www.w3.org/1999/02/22-rdf-syntax-ns#"
   xmlns:svg="http://www.w3.org/2000/svg"
   xmlns="http://www.w3.org/2000/svg"
   xmlns:sodipodi="http://sodipodi.sourceforge.net/DTD/sodipodi-0.dtd"
   xmlns:inkscape="http://www.inkscape.org/namespaces/inkscape"
   width="793.70081"
   height="1122.5197"
   viewBox="0 0 210 297"
   version="1.1"
   id="svg8"
   inkscape:version="0.92.3 (unknown)"
   sodipodi:docname="redraw_main_menu.svg">
  <defs
     id="defs2">
    <filter
       inkscape:label="Apparition"
       inkscape:menu="Blurs"
       inkscape:menu-tooltip="Edges are partly feathered out"
       style="color-interpolation-filters:sRGB;"
       id="filter983">
      <feMorphology
         radius="4"
         in="SourceGraphic"
         result="result0"
         id="feMorphology977" />
      <feGaussianBlur
         in="result0"
         stdDeviation="8"
         result="result91"
         id="feGaussianBlur979" />
      <feComposite
         operator="in"
         in="SourceGraphic"
         in2="result91"
         id="feComposite981"
         result="fbSourceGraphic" />
      <feColorMatrix
         result="fbSourceGraphicAlpha"
         in="fbSourceGraphic"
         values="0 0 0 -1 0 0 0 0 -1 0 0 0 0 -1 0 0 0 0 1 0"
         id="feColorMatrix1344" />
      <feMorphology
         id="feMorphology1346"
         radius="4"
         in="fbSourceGraphic"
         result="result0" />
      <feGaussianBlur
         id="feGaussianBlur1348"
         in="result0"
         stdDeviation="8"
         result="result91" />
      <feComposite
         in2="result91"
         id="feComposite1350"
         operator="in"
         in="fbSourceGraphic"
         result="fbSourceGraphic" />
      <feColorMatrix
         result="fbSourceGraphicAlpha"
         in="fbSourceGraphic"
         values="0 0 0 -1 0 0 0 0 -1 0 0 0 0 -1 0 0 0 0 1 0"
         id="feColorMatrix1352" />
      <feMorphology
         id="feMorphology1354"
         radius="4"
         in="fbSourceGraphic"
         result="result0" />
      <feGaussianBlur
         id="feGaussianBlur1356"
         in="result0"
         stdDeviation="8"
         result="result91" />
      <feComposite
         in2="result91"
         id="feComposite1358"
         operator="in"
         in="fbSourceGraphic"
         result="fbSourceGraphic" />
      <feColorMatrix
         result="fbSourceGraphicAlpha"
         in="fbSourceGraphic"
         values="0 0 0 -1 0 0 0 0 -1 0 0 0 0 -1 0 0 0 0 1 0"
         id="feColorMatrix1360" />
      <feMorphology
         id="feMorphology1362"
         radius="4"
         in="fbSourceGraphic"
         result="result0" />
      <feGaussianBlur
         id="feGaussianBlur1364"
         in="result0"
         stdDeviation="8"
         result="result91" />
      <feComposite
         in2="result91"
         id="feComposite1366"
         operator="in"
         in="fbSourceGraphic" />
    </filter>
    <filter
       style="color-interpolation-filters:sRGB;"
       inkscape:label="Blur"
       id="filter1459">
      <feGaussianBlur
         stdDeviation="3.97786 3.71"
         result="blur"
         id="feGaussianBlur1457" />
    </filter>
    <filter
       style="color-interpolation-filters:sRGB;"
       inkscape:label="Blur"
       id="filter1543">
      <feGaussianBlur
         stdDeviation="6.89 5.565"
         result="blur"
         id="feGaussianBlur1541" />
    </filter>
    <filter
       style="color-interpolation-filters:sRGB;"
       inkscape:label="Blur"
       id="filter1547">
      <feGaussianBlur
         stdDeviation="6.89 5.565"
         result="blur"
         id="feGaussianBlur1545" />
    </filter>
    <filter
       style="color-interpolation-filters:sRGB;"
       inkscape:label="Blur"
       id="filter1932">
      <feGaussianBlur
         stdDeviation="9.26833 11.91"
         result="blur"
         id="feGaussianBlur1930" />
    </filter>
    <filter
       style="color-interpolation-filters:sRGB;"
       inkscape:label="Blur"
       id="filter1970">
      <feGaussianBlur
         stdDeviation="5.04 3.71333"
         result="blur"
         id="feGaussianBlur1968" />
    </filter>
    <filter
       style="color-interpolation-filters:sRGB;"
       inkscape:label="Blur"
       id="filter2030">
      <feGaussianBlur
         stdDeviation="7.95 52.1212"
         result="blur"
         id="feGaussianBlur2028" />
    </filter>
    <filter
       inkscape:collect="always"
       style="color-interpolation-filters:sRGB"
       id="filter2040"
       x="-0.047301928"
       width="1.0946039"
       y="-0.86720214"
       height="2.7344043">
      <feGaussianBlur
         inkscape:collect="always"
         stdDeviation="5.2149751"
         id="feGaussianBlur2042" />
    </filter>
    <filter
       inkscape:collect="always"
       style="color-interpolation-filters:sRGB"
       id="filter2420"
       x="-0.44608903"
       width="1.8921781"
       y="-0.20541558"
       height="1.4108312">
      <feGaussianBlur
         inkscape:collect="always"
         stdDeviation="13.313571"
         id="feGaussianBlur2422" />
    </filter>
    <filter
       inkscape:collect="always"
       style="color-interpolation-filters:sRGB"
       id="filter3058"
       x="-0.28121739"
       width="1.5624348"
       y="-1.6374683"
       height="4.2749367">
      <feGaussianBlur
         inkscape:collect="always"
         stdDeviation="14.405827"
         id="feGaussianBlur3060" />
    </filter>
    <filter
       inkscape:collect="always"
       style="color-interpolation-filters:sRGB"
       id="filter4610"
       x="-0.084149149"
       width="1.1682983"
       y="-0.086277429"
       height="1.1725549">
      <feGaussianBlur
         inkscape:collect="always"
         stdDeviation="0.83991545"
         id="feGaussianBlur4612" />
    </filter>
  </defs>
  <sodipodi:namedview
     id="base"
     pagecolor="#ffffff"
     bordercolor="#666666"
     borderopacity="1.0"
     inkscape:pageopacity="0.0"
     inkscape:pageshadow="2"
     inkscape:zoom="0.49497475"
     inkscape:cx="999.85732"
     inkscape:cy="720.38008"
     inkscape:document-units="mm"
     inkscape:current-layer="layer1"
     showgrid="false"
     units="px"
     showborder="false"
     inkscape:window-width="1920"
     inkscape:window-height="1027"
     inkscape:window-x="0"
     inkscape:window-y="26"
     inkscape:window-maximized="1"
     inkscape:object-nodes="false" />
  <metadata
     id="metadata5">
    <rdf:RDF>
      <cc:Work
         rdf:about="">
        <dc:format>image/svg+xml</dc:format>
        <dc:type
           rdf:resource="http://purl.org/dc/dcmitype/StillImage" />
        <dc:title />
      </cc:Work>
    </rdf:RDF>
  </metadata>
  <g
     inkscape:label="Layer 1"
     inkscape:groupmode="layer"
     id="layer1">
    <rect
       style="opacity:1;fill:#c8b7b7;fill-opacity:0.99476438;fill-rule:evenodd;stroke:#ffffff;stroke-width:0.99999994;stroke-miterlimit:4;stroke-dasharray:none;stroke-opacity:0"
       id="rect815"
       width="506.99997"
       height="284.75"
       x="8.9724503"
       y="7.0986571"
       inkscape:export-xdpi="73.974503"
       inkscape:export-ydpi="73.974503" />
    <g
       id="g895"
       inkscape:export-xdpi="73.974503"
       inkscape:export-ydpi="73.974503">
      <path
         transform="matrix(0.98135314,0,0,0.98024192,0.167308,5.7663679)"
         inkscape:connector-curvature="0"
         id="path3064"
         style="opacity:0.58399999;fill:#5f4545;fill-opacity:1;fill-rule:evenodd;stroke:none;stroke-width:0.35968465;filter:url(#filter4610)"
         d="m 492.80809,258.65587 c -6.61405,0 -11.97662,5.36256 -11.97662,11.97807 0,5.29198 3.43167,9.781 8.19128,11.36557 0.59927,0.10956 0.81767,-0.2603 0.81767,-0.57794 0,-0.28384 -0.0107,-1.03752 -0.0167,-2.0368 -3.33166,0.72355 -4.03462,-1.6059 -4.03462,-1.6059 -0.54487,-1.3831 -1.33015,-1.75148 -1.33015,-1.75148 -1.08752,-0.7434 0.0823,-0.72868 0.0823,-0.72868 1.20222,0.0853 1.83459,1.23456 1.83459,1.23456 1.06839,1.83017 2.80369,1.30149 3.48606,0.9956 0.10876,-0.77427 0.41766,-1.30222 0.7603,-1.60149 -2.65959,-0.3022 -5.45594,-1.33016 -5.45594,-5.91992 0,-1.30736 0.4669,-2.37649 1.23311,-3.214 -0.12361,-0.30295 -0.53457,-1.5206 0.11691,-3.16989 0,0 1.0059,-0.32205 3.29414,1.22796 0.95516,-0.26544 1.9802,-0.39853 2.99858,-0.40295 1.01691,0.004 2.04194,0.13751 2.99855,0.40295 2.2868,-1.55001 3.29048,-1.22796 3.29048,-1.22796 0.65369,1.64929 0.24266,2.86694 0.11919,3.16989 0.76765,0.83751 1.23162,1.90664 1.23162,3.214 0,4.60153 -2.80076,5.61404 -5.46917,5.91037 0.43015,0.36985 0.81324,1.10074 0.81324,2.2184 0,1.60075 -0.0146,2.89268 -0.0146,3.28534 0,0.32058 0.21546,0.69338 0.82356,0.57647 4.75594,-1.58752 8.18465,-6.0736 8.18465,-11.3641 0,-6.61551 -5.3633,-11.97807 -11.9788,-11.97807" />
      <path
         d="m 483.78607,259.31169 c -6.49071,0 -11.75329,5.25661 -11.75329,11.74141 0,5.18742 3.36768,9.58775 8.03854,11.14101 0.58809,0.10739 0.80242,-0.25516 0.80242,-0.56652 0,-0.27823 -0.0105,-1.01702 -0.0164,-1.99656 -3.26953,0.70926 -3.95938,-1.57417 -3.95938,-1.57417 -0.53471,-1.35577 -1.30535,-1.71687 -1.30535,-1.71687 -1.06724,-0.72872 0.0808,-0.71429 0.0808,-0.71429 1.1798,0.0836 1.80038,1.21017 1.80038,1.21017 1.04846,1.79401 2.75141,1.27578 3.42105,0.97593 0.10673,-0.75897 0.40987,-1.27649 0.74612,-1.56985 -2.60999,-0.29623 -5.3542,-1.30388 -5.3542,-5.80295 0,-1.28153 0.45819,-2.32954 1.21012,-3.1505 -0.12131,-0.29696 -0.5246,-1.49055 0.11473,-3.10726 0,0 0.98714,-0.31568 3.23271,1.2037 0.93735,-0.2602 1.94328,-0.39066 2.94267,-0.39499 0.99795,0.004 2.00386,0.13479 2.94263,0.39499 2.24416,-1.51938 3.22913,-1.2037 3.22913,-1.2037 0.6415,1.61671 0.23813,2.8103 0.11696,3.10726 0.75334,0.82096 1.20866,1.86897 1.20866,3.1505 0,4.51061 -2.74854,5.50312 -5.36719,5.79359 0.42213,0.36254 0.79808,1.07899 0.79808,2.17457 0,1.56912 -0.0143,2.83553 -0.0143,3.22043 0,0.31424 0.21144,0.67968 0.8082,0.56508 4.66726,-1.55616 8.03203,-5.9536 8.03203,-11.13957 0,-6.4848 -5.26329,-11.74141 -11.75543,-11.74141"
         style="fill:#9a7676;fill-opacity:1;fill-rule:evenodd;stroke:none;stroke-width:0.35277775"
         id="path24"
         inkscape:connector-curvature="0" />
    </g>
    <g
       style="opacity:0.55400002;stroke:none;stroke-width:0.99901307"
       id="g1887"
       transform="matrix(0.99740484,0,0,1,275.18947,-337.41714)">
      <path
         inkscape:connector-curvature="0"
         style="opacity:1;fill:#554141;fill-opacity:1;fill-rule:evenodd;stroke:none;stroke-width:0.99901307;stroke-miterlimit:4;stroke-dasharray:none;stroke-opacity:1"
         d="m -196.59161,429.56792 c 0,0 -2.61535,0.55335 -6.21771,1.34101 l 1.695,5.83478 -8.29511,2.40967 -1.84536,-6.35104 c -3.52044,0.8082 -7.11351,1.6596 -10.1813,2.45102 l 17.87901,61.53473 -1.43092,0.61288 -0.0299,-0.003 0.004,0.0135 -0.20103,0.0863 2.62827,10.55748 -0.86662,7.44916 1.02579,2.38281 3.33518,-1.58181 8.47548,27.04071 11.44889,-3.58841 -2.26963,3.63132 -0.0941,2.5926 h 6.54431 l -0.0889,27.86031 7.12359,0.0228 25.01657,-23.16342 -1.12242,-25.8186 -10.52338,-43.18288 -1.01907,0.4377 -5.46531,-18.81024 0.15555,-0.0243 0.0884,-27.51354 -1.78541,-0.63614 -0.0894,0.0511 c -0.0677,-0.0551 -0.12594,-0.0993 -0.19172,-0.15192 l -2.27378,-0.81029 0.66302,2.46084 -3.68556,2.12339 -0.0801,-0.27596 -17.03462,-0.96324 z m 17.85319,13.10979 4.39353,15.12207 -8.29511,2.4102 -4.39353,-15.12208 z m -17.96635,5.22036 4.39404,15.12207 -8.29511,2.4102 -4.39404,-15.12208 z m 249.20649,30.30357 -0.0853,60.21441 -5.03637,5.04414 -1.21025,-5.33302 -1.41336,-0.0532 0.0217,-0.57518 -9.66764,-0.36018 -0.048,-0.37362 -2.1487,-0.0811 -2.14924,10.66496 -3.97494,6.35931 -0.0941,2.5926 h 6.54431 l -0.0889,27.86033 18.50273,0.0589 0.0233,1.18494 h 49.9923 l 1.31517,-29.10417 h 10.32028 l 0.18812,-5.17951 c -0.52658,-0.22659 -0.84876,-0.40886 -1.45005,-0.64855 -0.96888,-0.38621 -2.03684,-0.78771 -3.20963,-1.1989 -1.17266,-0.41111 -2.45036,-0.83193 -3.83903,-1.25677 -0.6051,-0.18511 -1.13694,-0.38262 -1.60922,-0.58963 l 0.26667,-5.89782 -1.10072,0.13435 0.0641,-45.38948 -16.08118,-5.70042 -8.58965,-10.86393 c 0,0 -2.66562,-0.20235 -6.34434,-0.4563 l -0.009,6.07611 -8.63822,-0.013 0.009,-6.61355 c -3.60585,-0.21124 -7.29321,-0.40135 -10.45983,-0.50178 z m -173.546,30.01627 c 0,0.007 0.007,0.0148 0.0103,0.0238 0.15017,0.25963 0.32617,0.51506 0.51263,0.76687 l -5.39039,0.38293 -0.43976,2.30941 -4.48498,0.31989 2.30373,17.72811 -2.63655,21.26692 3.53158,1.56114 2.92592,-6.37997 6.34328,-3.71192 -8.69095,10.34719 16.83567,7.44244 -0.31469,24.84654 -0.31369,0.28369 h 14.47768 c -0.45344,-0.37658 -0.92924,-0.76433 -1.43301,-1.16478 -0.97274,-0.77324 -2.0415,-1.59027 -3.21373,-2.44739 -0.33981,-0.24844 -0.6453,-0.49096 -0.92554,-0.72917 l 0.68058,-3.191 -4.67622,-13.94902 -0.93998,-18.25316 -6.23528,-6.258 2.82102,-1.65108 6.74428,-10.54095 0.99428,-6.02186 0.44129,-0.048 -0.37308,-5.16972 c -0.54801,-0.1683 -0.88771,-0.31499 -1.51154,-0.48781 -1.005,-0.27916 -2.11035,-0.56303 -3.32073,-0.84492 -1.21026,-0.28181 -2.52574,-0.56145 -3.95222,-0.83354 -0.71321,-0.13605 -1.33805,-0.29737 -1.88153,-0.48059 -0.54351,-0.18355 -1.00526,-0.38825 -1.39578,-0.61132 -0.39058,-0.22307 -0.70956,-0.46448 -0.96377,-0.71986 -0.0377,-0.0378 -0.071,-0.0774 -0.10594,-0.11578 l -1.90892,0.13592 c -0.20873,-0.44688 -0.40309,-0.83339 -0.56896,-1.1343 -0.38571,-0.70014 -0.63251,-1.01854 -0.63251,-1.01854 l -1.19788,-0.14314 c -0.0852,-0.1688 -0.16798,-0.32705 -0.24288,-0.46302 -0.38574,-0.69987 -0.63252,-1.01854 -0.63252,-1.01854 z"
         id="path1881" />
      <path
         style="opacity:1;fill:#7f7171;fill-opacity:1;fill-rule:evenodd;stroke:none;stroke-width:0.99901307;stroke-miterlimit:4;stroke-dasharray:none;stroke-opacity:1"
         d="m -109.4269,460.85696 -8.81031,90.09682 49.90187,4.87981 7.05794,-72.18061 -15.46053,-7.21711 -7.50911,-11.63754 c 0,0 -2.63406,-0.45691 -6.27144,-1.06246 l -0.59119,6.04665 -8.5974,-0.84026 0.64387,-6.58307 c -3.56894,-0.55611 -7.2213,-1.09853 -10.3637,-1.50223 z m 9.67485,20.07939 8.59743,0.84079 -1.53273,15.67294 -8.5969,-0.84077 z m 18.62006,1.82107 8.59742,0.84027 -1.53273,15.67296 -8.5969,-0.84079 z m 193.77837,5.88338 1.27743,2.20554 -5.42499,5.41518 c -0.1688,-0.0755 -0.31917,-0.13806 -0.47596,-0.20516 l 2.96418,11.2045 -7.98092,2.11044 -2.79878,-10.5823 -1.89344,1.88982 1.48931,2.5709 -5.42499,5.41517 c -0.56896,-0.25487 -1.07529,-0.46291 -1.48259,-0.61338 -0.0806,-0.0298 -0.13888,-0.0478 -0.21291,-0.0739 l 1.0201,3.85506 -6.6244,1.75234 -4.1026,4.09535 -0.51366,-0.51417 -5.8043,5.79345 11.9848,45.30627 37.91344,-10.02937 2.98329,28.99463 111.70584,-11.49337 -1.99679,-19.40399 1.99782,-0.20515 v -25.64183 l -7.30962,0.75189 -0.062,-0.60359 -1.46812,-14.272 -9.96839,1.02579 0.031,0.30178 -13.74283,1.41386 0.2992,2.91041 -3.39255,1.14724 -2.3518,-3.57394 -2.71145,-2.62051 -3.84886,1.15908 -4.82193,-0.87746 -0.37259,-3.62458 -7.75353,-1.1865 -11.94657,1.07643 -2.14096,1.44127 1.80972,4.24002 -0.81959,3.90004 0.0124,0.0403 -4.93924,-0.75602 -14.72158,1.32704 -2.63861,1.77612 2.22986,5.22502 -1.00976,4.80539 1.12705,3.64524 1.2754,3.25459 -3.77394,1.70429 -1.57406,2.98381 -2.36162,0.80666 -3.96565,-0.15608 -1.81229,4.3243 -2.23346,0.22995 -0.46714,1.36427 -0.14317,0.0151 0.032,0.31007 -0.28887,0.84439 0.36949,-0.0625 0.0217,0.21032 -1.09193,0.11213 -17.48266,-66.08795 -1.88929,-0.15298 -0.0734,0.0729 c -0.0797,-0.0357 -0.14767,-0.0633 -0.22479,-0.0972 z m -339.95032,14.70557 -2.14923,10.66496 -3.97495,6.35931 -1.04592,28.8153 56.43118,2.04896 -1.30379,14.20844 23.61613,4.41473 11.61116,-9.03253 -29.02045,-1.3901 0.014,-0.26304 29.32792,1.40353 0.71676,-0.55758 -5.90561,-2.53214 -3.61164,-3.49488 c -0.0269,-0.008 -0.81748,-0.25877 -1.72651,-0.52142 -0.4622,-0.13356 -0.94806,-0.26778 -1.36271,-0.36999 -0.41466,-0.10224 -0.7661,-0.17301 -0.92554,-0.17881 -0.15957,-0.006 -0.27985,-0.11319 -0.39325,-0.2527 -0.1134,-0.13952 -0.22344,-0.32409 -0.33229,-0.54364 -0.21762,-0.43913 -0.43172,-1.0123 -0.6227,-1.58388 -0.37872,-1.13334 -0.65923,-2.24266 -0.66455,-2.26187 -0.007,-0.0103 -0.22802,-0.34512 -0.53433,-0.86764 -0.3063,-0.5225 -0.6976,-1.2327 -1.04439,-1.9942 -0.16745,-0.36769 -0.3248,-0.54911 -0.44235,-0.62013 -0.11753,-0.0709 -0.19331,-0.0559 -0.28319,-0.006 -0.17973,0.0992 -0.33485,0.39428 -0.33485,0.39428 l -0.25218,-0.062 0.1483,-4.09432 -0.79169,-3.10316 -3.51244,-0.31367 -3.05047,-4.17494 -6.71171,-1.57562 0.66456,-18.31102 c -0.52658,-0.22659 -0.84876,-0.40886 -1.45005,-0.64854 -0.96888,-0.38621 -2.03692,-0.78775 -3.20964,-1.19891 -1.17268,-0.41114 -2.45036,-0.83193 -3.83902,-1.25677 -0.69429,-0.21241 -1.29746,-0.44013 -1.81798,-0.68109 -0.52054,-0.24106 -0.95779,-0.49506 -1.32188,-0.75912 -0.36412,-0.26405 -0.65498,-0.53864 -0.88006,-0.8201 -0.0334,-0.0417 -0.0624,-0.0842 -0.093,-0.1261 l -1.91204,-0.0713 c -0.15917,-0.46686 -0.31104,-0.87249 -0.44339,-1.1896 -0.30768,-0.73774 -0.51832,-1.08056 -0.51832,-1.08056 l -1.17512,-0.2718 c -0.0664,-0.17701 -0.13144,-0.34354 -0.19119,-0.48681 -0.30771,-0.7376 -0.51935,-1.08106 -0.51935,-1.08106 l -0.2346,-0.0532 c -2.4e-4,0.006 0.006,0.0159 0.008,0.0249 0.12123,0.27434 0.26821,0.54702 0.42632,0.81753 l -5.40017,-0.20256 -0.68678,2.24843 -6.06166,-0.22583 c -0.15888,-0.46706 -0.31104,-0.87249 -0.44338,-1.18959 -0.0765,-0.18333 -0.14759,-0.34152 -0.21032,-0.47696 l -1.18753,-0.045 -1.85415,0.28734 -5.05084,5.05859 -1.21026,-5.33299 -1.41335,-0.0532 0.0217,-0.57515 -9.66764,-0.36018 -0.048,-0.37364 z m 125.07558,2.91351 8.5974,0.84027 -1.53273,15.67294 -8.5969,-0.8408 z m 18.99264,1.85672 8.5974,0.84079 -1.53274,15.67294 -8.59689,-0.84077 z m 196.93784,8.01036 3.84834,14.54796 -7.98039,2.11151 -3.84834,-14.54846 z m 114.37958,4.19148 0.62167,6.0415 -4.60592,0.47386 -0.62167,-6.04147 z m -132.00901,0.47233 3.84837,14.54796 -7.98042,2.11098 -3.84834,-14.54796 z m 121.8148,0.57672 0.62167,6.04096 -4.60645,0.47387 -0.62114,-6.04097 z m -445.07517,2.4629 7.10449,0.25786 -0.41754,11.49543 -7.10449,-0.25789 z m 18.32189,0.66505 7.10499,0.25789 -0.41703,11.49541 -7.10499,-0.25787 z m 20.19308,0.73279 7.10449,0.25787 -0.41757,11.49593 -7.10446,-0.25786 z"
         id="path1883"
         inkscape:connector-curvature="0" />
      <path
         style="opacity:1;fill:#6c5353;fill-opacity:1;fill-rule:evenodd;stroke:none;stroke-width:0.99901307;stroke-miterlimit:4;stroke-dasharray:none;stroke-opacity:1"
         d="m 65.97584,452.10505 c -0.31867,1.04777 -0.64032,2.15826 -0.96274,3.36722 -0.18706,0.70159 -0.39296,1.31286 -0.61495,1.84176 -0.22198,0.52896 -0.45987,0.97584 -0.71056,1.34927 -0.24773,0.36915 -0.50843,0.66577 -0.77825,0.89969 v 2.72955 c -0.38608,0.14769 -0.72094,0.2876 -0.98237,0.40825 -0.0725,0.0335 -0.12531,0.0607 -0.1886,0.0915 v 3.75584 l 2.68873,0.44079 -4.56925,1.21232 c 0.0613,0.05 0.12277,0.0995 0.18502,0.14367 l -0.8754,4.55269 -0.0362,0.0336 0.11678,0.60772 1.28003,0.33951 v 5.08289 c -0.0792,0.0303 -0.14684,0.0588 -0.22063,0.0884 l 0.0821,0.42685 0.61547,0.16327 v 0.97671 l 4.75628,4.41677 -5.23843,1.38959 v 5.11287 l 0.91107,0.14933 -0.91107,0.24185 v 0.48266 l -3.74189,0.61341 v 2.79672 l 1.84279,0.48884 v 4.66329 h -0.48215 v 8.10648 l -1.26658,0.20776 v 4.43899 c -1.10993,-0.36261 -2.22039,-0.73369 -3.33159,-1.1131 a 1.8708865,2.6192412 27.80225 0 0 -0.83095,-1.78232 1.8708865,2.6192412 27.80225 0 0 -2.87684,1.44434 1.8708865,2.6192412 27.80225 0 0 -0.36174,1.07799 l -5.95415,-3.13936 4.36356,-8.27442 -2.482,-1.30897 -4.36357,8.27444 -3.64939,-1.92444 a 1.5902534,2.5256968 27.80225 0 0 0.74154,-0.98341 1.5902534,2.5256968 27.80225 0 0 -0.22838,-2.97603 1.5902534,2.5256968 27.80225 0 0 -2.58538,1.49241 1.5902534,2.5256968 27.80225 0 0 -0.39119,1.1679 l -0.50644,-0.26665 -0.61134,1.15755 6.62027,3.49126 -1.48362,2.81326 -3.23909,-1.70844 a 1.5902534,2.338608 27.80225 0 0 -0.61441,-2.01536 1.5902534,2.338608 27.80225 0 0 -2.00867,0.63251 l -0.0956,-0.0501 -0.96014,1.82108 0.20619,0.10853 a 1.5902534,2.338608 27.80225 0 0 0.67696,1.62573 1.5902534,2.338608 27.80225 0 0 1.72289,-0.36017 l 3.35174,1.76733 -13.26171,25.14989 2.27169,1.43195 -2.6846,-0.12866 0.38912,13.29891 h -2.05258 -1.05833 -0.52917 c -0.0882,0 -0.18569,-0.0394 -0.26458,0 -0.11155,0.0558 -0.16079,0.19542 -0.26459,0.26458 -0.0367,0.0243 -0.0904,-0.014 -0.13229,0 -0.95824,0.31943 0.20857,-0.0381 -0.39687,0.26458 -0.0394,0.0198 -0.0928,-0.0198 -0.1323,0 -0.0558,0.0279 -0.0804,0.0977 -0.13229,0.1323 -0.082,0.0547 -0.19484,0.0625 -0.26458,0.13229 -0.0624,0.0624 0.0394,0.18568 0,0.26458 -0.0103,0.0206 -0.0238,0.0401 -0.0388,0.0584 h -94.87535 l -1.7911,-1.91047 -5.02708,-0.26459 c 0,0 -2.51354,-0.66143 -3.57188,-1.05833 -1.05833,-0.39685 -1.71979,-0.26458 -2.24896,-0.26458 -0.52916,0 -0.39687,-2.38125 -0.39687,-2.38125 l -2.07171,-2.64737 v -29.83952 c -0.53446,-0.20733 -0.86368,-0.37759 -1.47328,-0.59532 -0.98224,-0.35081 -2.06362,-0.71326 -3.25046,-1.08159 -1.18684,-0.36832 -2.47878,-0.74255 -3.88194,-1.11672 -0.70157,-0.18709 -1.31281,-0.39299 -1.84174,-0.61495 -0.52893,-0.22201 -0.97584,-0.4599 -1.34927,-0.71056 -0.37346,-0.25067 -0.67334,-0.51438 -0.90847,-0.78753 -0.23514,-0.27313 -0.40534,-0.55605 -0.51935,-0.84545 -0.11401,-0.28941 -0.17185,-0.58524 -0.1819,-0.88469 -0.0101,-0.29946 0.0276,-0.60259 0.10437,-0.90588 0.0768,-0.30329 0.19267,-0.60653 0.33901,-0.90744 0.14634,-0.30091 0.32314,-0.5991 0.52192,-0.89144 0.39756,-0.58465 0.88276,-1.14628 1.387,-1.65933 0.50427,-0.51268 1.02761,-0.97769 1.50122,-1.36941 0.94713,-0.78345 1.6955,-1.27433 1.6955,-1.27433 0,0 -1.30961,-4.02265 -2.66599,-8.23207 -0.65109,-2.02057 -0.88144,-2.80757 -1.41439,-4.49016 h -4.36975 c -0.45273,0.94829 -0.84362,1.69489 -1.32551,2.75953 -1.0056,2.22167 -2.02282,4.57226 -2.83548,6.53086 -0.81267,1.95858 -1.42058,3.52529 -1.60767,4.1801 -0.18708,0.65482 -0.37443,1.21627 -0.54983,1.68982 -0.17539,0.47358 -0.33996,0.85921 -0.47902,1.16324 -0.28067,0.60804 -0.46821,0.88884 -0.46821,0.88884 l -9.7286,1.87068 -4.86431,5.23844 -4.86428,-18.33481 h -7.85741 l -2.06447,12.59509 c -1.04494,-1.94796 -2.15339,-3.89734 -3.34812,-5.83168 a 2.6192412,1.8708865 84.734888 0 0 -1.85311,-1.41385 2.6192412,1.8708865 84.734888 0 0 -1.62266,2.78019 2.6192412,1.8708865 84.734888 0 0 0.28474,1.10072 l -6.70242,0.61751 -0.85837,-9.31466 -2.79413,0.25734 0.85834,9.31468 -4.1088,0.37878 a 2.5256968,1.5902534 84.734888 0 0 0.0848,-1.22886 2.5256968,1.5902534 84.734888 0 0 -1.81542,-2.36937 2.5256968,1.5902534 84.734888 0 0 -1.35186,2.66134 2.5256968,1.5902534 84.734888 0 0 0.30903,1.19268 l -0.56999,0.0522 0.11989,1.30431 0.231,-0.0212 c -3.12732,9.74058 -6.74412,18.87937 -11.82769,26.21856 -0.57018,0.82315 -1.16009,1.62201 -1.76837,2.39829 h -14.14849 v 3.60548 l -4.3031,0.97822 -2.43242,-4.67723 -2.9931,-3.55483 -4.86429,0.93535 -5.79966,-1.68362 v -4.49017 l -9.35445,-2.43239 -14.78,-0.18709 -2.80654,1.49707 1.68362,5.42552 -1.49653,4.67722 0.74827,3.74137 0.93532,3.36778 -3.92842,1.30947 -1.87122,2.80654 -2.43189,0.56121 -3.92895,-0.56121 -2.24534,4.11602 h -2.24483 l -0.60462,1.3095 h -0.14365 v 0.3116 l -0.37414,0.81079 0.37414,-0.0243 v 0.21135 h -9.54153 v 31.43115 h 507.75866 v -29.65344 c 0.0757,-0.0329 0.13976,-0.0995 0.22117,-0.11576 0.12972,-0.0259 0.27405,0.0491 0.39687,0 0.11581,-0.0463 0.16082,-0.19537 0.26459,-0.26458 0.0367,-0.0243 0.0956,0.0243 0.13229,0 0.1038,-0.0692 0.17637,-0.17637 0.26458,-0.26458 0.0441,-0.0441 0.10441,-0.0765 0.13229,-0.1323 0.17751,-0.35493 0.1323,-0.68426 0.1323,-1.05833 0,-0.17637 0.0428,-0.35806 0,-0.52917 -0.0302,-0.12102 -0.20879,-0.15303 -0.26459,-0.26458 -0.0624,-0.12472 -0.0452,-0.288 -0.13229,-0.39687 -0.44868,-0.56087 -0.24985,-0.1274 -0.66146,-0.26459 -0.26598,-0.0887 -0.0658,-0.39608 -0.13229,-0.52916 -0.0279,-0.0558 -0.0882,-0.0882 -0.13229,-0.1323 -0.14097,-0.14099 -0.40249,-0.36028 -0.52917,-0.52916 -0.0954,-0.12721 -0.15216,-0.28446 -0.26458,-0.39688 -0.32128,-0.32128 -0.19426,0.0394 -0.39688,-0.26458 -0.0547,-0.082 -0.0626,-0.19487 -0.13229,-0.26458 -0.33417,-0.33417 -0.1525,-0.0509 -0.39687,-0.1323 -0.82114,-0.27358 0.43968,0.0109 -0.66146,-0.26458 -0.0428,-0.0106 -0.0882,0 -0.13229,0 h -0.52917 -1.45521 -0.26458 c -0.0441,0 -0.0956,-0.0243 -0.13229,0 -0.10377,0.0692 -0.14878,0.21828 -0.26459,0.26458 -0.0456,0.0183 -0.97493,0 -1.05833,0 h -0.26458 c -0.0441,0 -0.0928,-0.0198 -0.13229,0 -0.0558,0.0279 -0.0712,0.1201 -0.1323,0.1323 -0.17295,0.0346 -0.35276,0 -0.52916,0 l -2.61845,-0.35296 c -0.009,-0.0135 -0.0185,-0.0262 -0.0274,-0.0439 -0.0394,-0.0789 0.0395,-0.18568 0,-0.26458 -0.0279,-0.0558 -0.0882,-0.0882 -0.13229,-0.13229 l -0.13229,-0.1323 c -0.0847,-0.0847 -0.40537,-0.44667 -0.52917,-0.52916 -0.082,-0.0547 -0.18258,-0.0776 -0.26458,-0.13229 -0.0519,-0.0346 -0.0882,-0.0882 -0.13229,-0.1323 0,-0.0441 0.0312,-0.10107 0,-0.13229 -0.16449,-0.16449 -0.33261,-0.13229 -0.52917,-0.13229 -0.0441,0 -0.0928,0.0198 -0.13229,0 -0.40386,-0.20166 0.24196,-0.10488 -0.39687,-0.26458 -0.13113,-0.0328 -0.5443,0.039 -0.66146,0 -0.32084,-0.10695 -0.35237,-0.31967 -0.66146,-0.39688 -0.0856,-0.0214 -0.17637,0 -0.26458,0 h -0.79375 c -0.11822,0 -0.61926,-0.0212 -0.66146,0 -0.0558,0.0279 -0.0731,0.1124 -0.13229,0.13229 -0.16196,0.054 -0.3637,-0.0414 -0.52917,0 -0.13528,0.0338 -0.27215,0.0699 -0.39688,0.1323 -0.60544,0.30268 0.56137,-0.0549 -0.39687,0.26458 -0.0418,0.014 -0.0895,-0.0106 -0.13229,0 -0.0884,0.0222 -0.17383,0.0512 -0.25839,0.0827 v -23.41613 l 8.30855,6.33037 2.26446,-3.16468 -12.60803,-9.60612 c 1.11583,-0.46061 2.22657,-0.9334 3.33314,-1.41645 a 2.3386081,1.5902535 73.95097 0 0 -0.0491,0.59116 l -0.10384,0.03 0.56896,1.97818 0.22426,-0.0646 a 2.3386081,1.5902535 73.95097 0 0 1.61438,0.70332 2.3386081,1.5902535 73.95097 0 0 0.99269,-1.45312 l 3.64111,-1.04749 8.88371,30.88029 v -10.14979 l -6.1867,-21.50618 6.1867,-1.77972 v -2.14198 l -6.75566,1.94355 -0.87953,-3.05668 7.42746,-2.1368 a 2.6192413,1.8708866 73.95097 0 0 0.20773,0.0331 v -5.02036 a 2.6192413,1.8708866 73.95097 0 0 -0.94052,-0.0579 2.6192413,1.8708866 73.95097 0 0 -1.07384,3.03445 2.6192413,1.8708866 73.95097 0 0 0.48578,1.02836 l -6.46885,1.86033 -2.58591,-8.98961 -2.69647,0.77565 2.58588,8.98964 -3.96513,1.14102 a 2.5256969,1.5902535 73.95097 0 0 -0.14676,-1.2232 2.5256969,1.5902535 73.95097 0 0 -2.22621,-1.988 2.5256969,1.5902535 73.95097 0 0 -0.96014,2.21073 c -2.44959,0.71644 -4.90273,1.40861 -7.35976,2.07327 l -21.70358,-16.53542 c -0.464,1.25164 -0.81391,2.36757 -0.93742,3.1016 -0.37698,2.24034 -0.17066,3.33084 -0.0749,3.69073 a 5.2523495,5.2523495 0 0 1 -2.61226,8.19486 l -7.00421,2.18178 c -0.008,0.003 -0.0447,0.0169 -0.0537,0.0201 l -1.35083,1.34823 c -0.14784,-0.0663 -0.27916,-0.12057 -0.38499,-0.1597 -0.0611,-0.0225 -0.11515,-0.0406 -0.16174,-0.0558 l -0.40979,0.40929 c 0.0632,0.0185 0.12565,0.0384 0.19172,0.0532 l -0.99841,0.99631 c 0.0389,0.0101 0.0781,0.0199 0.11782,0.029 l -0.25423,0.25371 a 5.2523495,5.2523495 0 0 1 0.29043,4.06797 c -21.23826,3.34169 -42.74346,4.44135 -64.50976,2.71407 v -7.30965 l 4.49017,-1.19115 v -1.47278 l -2.61948,-0.42942 v -3.0303 h -6.23271 c -0.14769,-0.38608 -0.28758,-0.72098 -0.40823,-0.98237 -0.28067,-0.60804 -0.46821,-0.88884 -0.46821,-0.88884 l -9.72859,-1.87068 -1.73686,-1.87069 h -4.02092 l -1.48882,5.61258 H 81.90768 l -2.20814,-13.47049 -1.96421,-3.41169 v -2.81689 l -0.32091,-0.0527 v -8.10649 h -0.48215 v -4.27775 l -0.3116,-0.0512 v -8.10649 h -0.48215 v -4.66328 l 0.74673,-0.19791 v -1.7534 H 76.4031 v -2.36108 c -0.11136,-0.0568 -0.24172,-0.12097 -0.39272,-0.19069 -0.26143,-0.12065 -0.59629,-0.2609 -0.98237,-0.40822 v -5.08291 l 1.90426,-0.50539 v -4.52789 c 0.22167,0.14071 0.44526,0.27247 0.67127,0.3824 0.007,0.003 0.0145,0.006 0.0217,0.009 l -0.0383,-0.19843 c 0,0 -0.15359,-0.10152 -0.46921,-0.26406 z m -2.36575,45.837 h 8.23206 v 17.96012 h -7.98248 c -0.0832,-0.0246 -0.16634,-0.0481 -0.24958,-0.0729 z m -210.22902,6.52361 c 1.0796,1.7848 2.08809,3.58133 3.04527,5.37642 l -1.48672,9.0687 c -0.43246,-1.90987 -0.84264,-3.8653 -1.23558,-5.8632 a 2.338608,1.3096205 84.734888 0 0 0.26406,-0.79168 l 0.88005,-0.0811 -0.18915,-2.04949 -0.87952,0.0811 a 2.338608,1.3096205 84.734888 0 0 -1.29035,-1.19579 2.338608,1.3096205 84.734888 0 0 -1.04905,1.41127 l -7.77316,0.71675 -0.29197,-3.16725 7.69617,-0.7095 a 2.6192412,1.8708865 84.734888 0 0 0.70488,0.1235 2.6192412,1.8708865 84.734888 0 0 0.67281,-0.25063 l 0.42738,-0.0393 -0.031,-0.33798 a 2.6192412,1.8708865 84.734888 0 0 0.55345,-2.1523 2.6192412,1.8708865 84.734888 0 0 -0.0175,-0.13955 z m -12.80025,3.76309 0.29196,3.16725 -3.6463,0.33589 a 2.338608,1.5902534 84.734888 0 0 -1.61435,-1.35443 2.338608,1.5902534 84.734888 0 0 -1.33843,1.62626 l -0.1075,0.0103 0.18916,2.04949 0.23201,-0.0212 a 2.338608,1.5902534 84.734888 0 0 0.87902,0.88988 c -0.88685,8.48071 -2.57794,16.00126 -5.35834,22.20484 h -7.46826 v 0.37414 h -2.54042 c 0.56652,-0.72921 1.11604,-1.47849 1.64899,-2.24792 5.1273,-7.40233 8.75813,-16.60388 11.89643,-26.39529 z m 202.32872,3.14243 6.83678,3.60445 a 1.8708865,2.6192412 27.80225 0 0 0.52245,0.48781 1.8708865,2.6192412 27.80225 0 0 0.70075,0.15711 l 0.37981,0.201 0.15814,-0.30075 a 1.8708865,2.6192412 27.80225 0 0 0.13073,-0.0517 c 1.28852,0.51205 2.57733,1.01761 3.86799,1.50947 h -8.78086 l -5.29941,-2.79415 z m -191.28084,1.10072 a 2.338608,1.3096205 84.734888 0 0 1.28985,1.19579 2.338608,1.3096205 84.734888 0 0 0.57621,-0.31988 c 0.42203,2.136 0.86074,4.22904 1.32961,6.26422 l -0.005,0.032 -3.7419,6.49936 v 26.03045 l -1.6836,2.26909 -1.74048,-0.046 -3.79717,-41.20885 z m 201.88793,0.41238 c 1.12009,0.38214 2.23967,0.75573 3.35847,1.12086 v 2.97346 h -0.61445 c -1.43602,-0.54329 -2.87067,-1.09982 -4.30413,-1.66811 a 1.8708865,2.6192412 27.80225 0 0 1.18959,-1.29088 1.8708865,2.6192412 27.80225 0 0 0.37052,-1.13533 z m -212.45472,0.56121 3.78788,41.1086 -1.72339,0.35656 h -2.52595 l -1.30948,0.28061 -2.52595,-1.40303 -1.77715,-1.3906 v -15.26058 h -4.58835 c 2.76182,-6.204 4.43968,-13.69372 5.32421,-22.12163 a 2.338608,1.5902534 84.734888 0 0 0.31781,0.0196 2.338608,1.5902534 84.734888 0 0 1.24749,-1.24179 z m 382.18752,0.0331 a 2.5256969,1.5902535 73.95097 0 0 0.0904,0.39066 2.5256969,1.5902535 73.95097 0 0 0.52657,1.11363 l -0.54983,0.15814 0.0532,0.185 c -1.84573,0.48281 -3.70871,0.95994 -5.58882,1.43039 l -1.66243,-1.26659 c 2.38067,-0.64539 4.75727,-1.31728 7.13084,-2.01123 z m 7.62125,0.85215 0.87902,3.05665 -3.51867,1.01235 a 2.3386081,1.5902535 73.95097 0 0 -1.83914,-1.02836 2.3386081,1.5902535 73.95097 0 0 -0.87437,0.92914 c -1.21608,0.53258 -2.4371,1.05317 -3.66437,1.55855 l -3.79979,-2.89491 c 1.81271,-0.45447 3.60971,-0.9149 5.39038,-1.38078 l 0.23461,0.81595 z m -190.40491,1.67431 2.80498,1.47896 a 1.918228,1.2236968 0 0 1 -0.38447,0.0718 v 1.27487 h 1.25677 v 3.80751 H 36.9683 Z m 9.96011,2.82514 h 1.52238 v 1.67587 c -0.39013,-0.13033 -0.7793,-0.26255 -1.16789,-0.39584 l 0.40928,-0.77722 -0.78084,-0.41185 a 1.3096205,2.338608 27.80225 0 0 0.0172,-0.091 z m 3.37447,0 h 3.07475 v 3.23392 c -1.0299,-0.30737 -2.05468,-0.62505 -3.07475,-0.95189 z m -7.80521,0.0904 1.37512,0.72504 a 1.3096205,2.338608 27.80225 0 0 0.42838,1.70635 1.3096205,2.338608 27.80225 0 0 1.65002,-0.61031 l 0.78187,0.41187 0.42426,-0.80512 c 0.43024,0.14771 0.86138,0.29308 1.29347,0.43719 v 1.85209 h -5.95312 z m 7.80521,2.47118 c 1.02015,0.32626 2.04485,0.64345 3.07475,0.95034 v 0.29559 h -3.07475 z m 126.59071,1.77716 a 5.2523495,5.2523495 0 0 1 -0.54364,1.01751 l -0.43201,0.62113 c -20.5994,3.45678 -42.06266,5.58932 -63.12379,5.4007 l -0.29713,-0.0486 v -4.29741 c 21.72851,1.72241 43.19654,0.63095 64.39657,-2.69338 z m -143.72145,0.0356 v 6.91689 h 4.48966 v 23.93032 h -0.38965 c -0.17637,0 -0.35619,0.0346 -0.52917,0 -0.0611,-0.0122 -0.0708,-0.12205 -0.13229,-0.13229 -0.38613,-0.0644 -0.80447,0.0643 -1.19063,0 -0.0879,-0.0145 -0.34186,-0.15462 -0.39687,-0.26458 -0.0196,-0.0395 0.0441,-0.13229 0,-0.13229 -0.13944,0 -0.25932,0.10935 -0.39688,0.13229 -0.003,0 -0.5834,-0.0259 -0.66145,0 -0.0935,0.0312 -0.17103,0.10109 -0.26459,0.13229 -0.0418,0.014 -0.0904,-0.014 -0.13229,0 -0.0935,0.0312 -0.16788,0.11295 -0.26458,0.13229 -0.27324,0.0546 -0.80026,-0.0645 -1.05834,0 -0.12099,0.0303 -0.13986,0.26458 -0.26458,0.26458 -0.13944,0 -0.26159,-0.0985 -0.39687,-0.13229 -0.0428,-0.0106 -0.0882,0 -0.1323,0 -0.17637,0 -0.35517,0.029 -0.52916,0 -0.0973,-0.0161 -0.17103,-0.10112 -0.26459,-0.13229 -0.0418,-0.014 -0.0882,0 -0.13229,0 h -0.26458 -0.92604 -0.26459 c -0.0441,0 -0.0904,0.014 -0.13229,0 -0.0935,-0.0312 -0.16788,-0.11295 -0.26458,-0.13229 -0.13467,-0.0269 -0.81238,0.0455 -0.92604,0 -0.11578,-0.0463 -0.16079,-0.1954 -0.26459,-0.26458 -0.003,-0.003 -0.5275,0 -0.52916,0 -0.0957,0.0238 -0.17103,0.10109 -0.26459,0.13229 -0.0418,0.014 -0.0928,-0.0198 -0.13229,0 0.0441,-0.0441 -0.1764,0.0882 -0.13229,0.13229 l 0.0941,-0.0935 c -0.0347,0.0515 -0.061,0.1266 -0.0941,0.0935 l -0.13229,0.13229 c -0.0441,0.0441 -0.0804,0.0977 -0.13229,0.13229 -0.15119,0.10078 -0.50779,0.23384 -0.66146,0.26459 -0.0865,0.0172 -0.17759,-0.0146 -0.26458,0 -0.17934,0.0299 -0.34981,0.10239 -0.52917,0.13229 -0.087,0.0145 -0.17637,0 -0.26458,0 h -0.39688 -0.0346 l -0.38447,-13.13614 z m 142.53083,1.91256 -3.07163,4.41884 a 5.2523495,5.2523495 0 0 1 -4.93615,2.21691 l -3.62717,-0.43457 -0.15089,0.15089 -0.10025,-0.0724 -1.1865,1.18444 -0.0274,-0.0274 -0.63769,0.63614 c -0.0569,-0.0259 -0.10004,-0.0412 -0.15037,-0.062 l -0.31522,0.31473 c -12.25338,1.05788 -24.76132,1.05232 -37.4029,0.008 v -1.38959 l -9.57564,-1.56991 c 20.43647,0.0613 41.21306,-2.03433 61.1818,-5.37435 z m -321.76175,4.25554 h 0.0486 c 1.38305,4.24873 3.0122,8.12384 5.02242,11.50318 h -5.071 z m 0.32917,0 h 6.77995 v 11.50318 h -1.72805 c -2.02094,-3.36746 -3.66004,-7.243 -5.0519,-11.50318 z m 18.00511,0 h 7.10964 v 11.50318 h -7.10964 z m 20.20601,0 h 7.10912 v 11.50318 h -7.10912 z m 149.29631,0.74829 H 56.8751 v 21.8617 c -0.73354,0.50128 -1.79425,1.10771 -3.27113,1.80557 0,-2.4e-4 -0.003,0 -0.003,0 -0.0837,-0.0279 -0.17638,0 -0.26459,0 -0.0441,0 -0.0904,-0.014 -0.13229,0 -0.0935,0.0312 -0.16891,0.1084 -0.26458,0.13229 -0.0855,0.0214 -0.17637,0 -0.26459,0 -0.0441,0 -0.0928,-0.0198 -0.13229,0 -0.0558,0.0279 -0.0765,0.10441 -0.13229,0.13229 -0.0839,0.042 -0.61857,-0.0429 -0.66146,0 -0.27371,0.27372 0.41828,-0.0106 -0.13229,0.26459 -0.0275,0.0138 -0.78674,0.003 -0.79375,0 -0.13528,-0.0338 -0.26159,-0.0985 -0.39687,-0.13229 -0.0428,-0.0106 -0.0928,0.0198 -0.1323,0 -0.0558,-0.0279 -0.0765,-0.10441 -0.13229,-0.1323 -0.0394,-0.0198 -0.0882,0 -0.13229,0 h -0.26458 c -0.0441,0 -0.13229,0.0441 -0.13229,0 h -0.1323 c -0.26609,0 -0.6923,-0.039 -0.92604,0 -0.0973,0.0161 -0.17637,0.0882 -0.26458,0.1323 -0.17637,0.0882 -0.34208,0.20222 -0.52917,0.26458 -0.0418,0.014 -0.0882,0 -0.13229,0 h -0.52917 c -0.0441,0 -0.0928,-0.0198 -0.13229,0 -0.0558,0.0279 -0.0765,0.1044 -0.13229,0.13229 -0.14115,0.0706 -0.1234,-0.0706 -0.26458,0 -0.0558,0.0279 -0.0765,0.10443 -0.13229,0.13229 -0.0402,0.0201 -0.43781,0 -0.52917,0 h -0.39688 c -0.0856,0 -0.17348,0.0188 -0.25683,0 z m 4.35787,23.93082 h 0.13229 c 0.0441,0 -0.13229,-0.0441 -0.13229,0 z m 77.96112,-20.33466 c 12.54056,1.03455 24.9501,1.04815 37.11143,0.0164 l -0.95961,0.95808 -0.23464,-0.16899 -1.01182,1.00976 -0.13332,-0.13333 -2.24793,2.2438 -0.10075,-0.0718 -1.1865,1.1839 -0.13332,-0.13385 -1.16893,1.16687 v 14.20481 c -0.36497,-0.37684 0.0746,-0.0327 -0.078,-0.33797 -0.0279,-0.0558 -0.0882,-0.0882 -0.1323,-0.1323 -0.0441,-0.0441 -0.0765,-0.10437 -0.13229,-0.13229 -0.0394,-0.0198 -0.0895,0.0106 -0.13229,0 -0.13528,-0.0339 -0.26159,-0.0985 -0.39687,-0.13229 -0.0428,-0.0106 -0.0882,0 -0.1323,0 h -0.39687 c -0.1065,0 -0.44606,-0.0277 -0.52917,0 -0.0935,0.0312 -0.17097,0.1011 -0.26458,0.13229 -0.0418,0.014 -0.0913,-0.0164 -0.13229,0 -0.18309,0.0732 -0.34208,0.2022 -0.52917,0.26459 -0.0837,0.0279 -0.17637,0 -0.26458,0 h -0.52917 c -1.0092,0 0.10438,-0.0592 -0.66146,0.13229 -0.0856,0.0214 -0.18089,-0.0279 -0.26458,0 -0.12999,0.0433 -0.21828,0.32739 -0.26458,0.39687 -0.0692,0.10377 -0.20879,0.15301 -0.26459,0.26459 -0.0196,0.0394 0.014,0.0905 0,0.13229 -0.0312,0.0935 -0.1011,0.171 -0.13229,0.26458 -0.0679,0.20368 0.19127,0.17338 -0.26458,0.26458 -0.12973,0.0259 -0.26459,0 -0.39688,0 h -0.92604 -1.05833 -0.26459 c -0.0441,0 -0.0905,0.014 -0.13229,0 -0.0935,-0.0312 -0.17097,-0.10107 -0.26458,-0.13229 -0.0724,-0.0241 -0.77975,-0.007 -0.79375,0 -0.0558,0.0279 -0.0765,0.10441 -0.13229,0.13229 -0.29247,0.14629 -0.30367,0.1323 -0.52917,0.1323 -0.10192,0 -0.11586,-0.003 -0.13385,-0.003 -0.0377,-0.0515 -0.0757,-0.10269 -0.13073,-0.13023 -0.0394,-0.0198 -0.0929,0.0199 -0.13229,0 -0.0558,-0.0279 -0.0882,-0.0882 -0.1323,-0.13229 -0.13446,-0.13449 -0.1833,-0.21116 -0.39687,-0.26458 -0.13113,-0.0328 -0.5443,0.039 -0.66146,0 -0.0935,-0.0312 -0.17108,-0.10107 -0.26458,-0.1323 -0.0502,-0.0167 -0.72964,-0.0161 -0.79375,0 -0.13528,0.0338 -0.2616,0.0985 -0.39688,0.1323 -0.239,0.0598 -0.19396,-0.20291 -0.52916,0.13229 0.0882,0 0.26458,-0.0882 0.26458,0 0,0.0882 -0.32695,0.0624 -0.26458,0 h -0.52917 -3.175 c -0.0882,-0.0441 -0.1764,-0.0882 -0.26458,-0.13229 -0.0882,-0.0441 -0.18259,-0.0776 -0.26459,-0.1323 -0.30265,-0.20177 0.0827,-0.10472 -0.39687,-0.26458 -0.0837,-0.0279 -0.18569,0.0394 -0.26459,0 -0.0558,-0.0279 -0.0718,-0.11718 -0.13229,-0.13229 -0.12832,-0.0321 -0.26458,0 -0.39687,0 h -0.52917 c -0.0698,0 -0.77446,-0.0116 -0.79375,0 -0.16042,0.0963 -0.2472,0.28461 -0.39687,0.39687 -0.034,0.0254 -0.33489,-0.0156 -0.39688,0 -0.28559,0.0714 -0.38071,0.18849 -0.66146,0.1323 -0.13673,-0.0273 -0.28083,-0.055 -0.39687,-0.1323 -0.0821,-0.0547 0.14721,-0.29908 -0.13229,-0.26458 -0.0394,-0.0198 -0.0928,0.0199 -0.1323,0 -0.14221,-0.0711 -0.24923,-0.20558 -0.39687,-0.26458 -0.0819,-0.0328 -0.17637,0 -0.26458,0 h -0.92605 c 0,0.0441 -0.17637,0 -0.13229,0 h -0.52916 -0.79375 c -0.1323,0 -0.26639,-0.0217 -0.39688,0 -0.13753,0.023 -0.25881,0.1125 -0.39687,0.13229 -0.30557,0.0437 -0.62336,-0.0605 -0.92605,0 -0.0967,0.0193 -0.17097,0.1011 -0.26458,0.13229 -0.0418,0.014 -0.0882,0 -0.13229,0 -0.0882,0 -0.1809,0.0279 -0.26458,0 -0.11833,-0.0394 -0.14357,-0.23437 -0.26459,-0.26458 -0.12832,-0.0321 -0.26458,0 -0.39687,0 -0.0441,0 -0.0905,0.014 -0.13229,0 -0.0935,-0.0312 -0.17638,-0.0882 -0.26459,-0.13229 -0.0882,-0.0441 -0.18248,-0.0776 -0.26458,-0.1323 -0.0519,-0.0346 -0.0731,-0.11247 -0.13229,-0.13229 -0.0837,-0.0279 -0.17637,0 -0.26459,0 -0.0441,0 -0.0929,0.0199 -0.13229,0 -0.0553,-0.0276 -0.14129,-0.13303 -0.22325,-0.22944 z m 5.7795,20.33466 h 0.13229 c 0,-0.0441 -0.0882,0 -0.13229,0 z M 62.11353,537.23057 h 11.97343 v 7.48326 H 62.11353 Z m 18.70895,0 h 11.97343 v 7.48326 H 80.82248 Z m 17.58601,0 h 11.97393 v 7.48326 H 98.40849 Z m -320.66984,4.20954 h 5.70611 v 7.48327 h -5.70611 z m 33.11477,0 h 5.44256 c -1.67373,1.67487 -3.48112,3.18617 -5.44256,4.51033 z m 12.6287,0 h 4.39301 c -0.47146,0.78568 -0.96565,1.54361 -1.48416,2.27222 -0.89659,1.25992 -1.86534,2.43226 -2.90885,3.51451 z m 4.70201,0 h 1.0041 v 7.48327 h -5.70611 v -1.31982 c 1.1263,-1.14496 2.1681,-2.39131 3.12589,-3.73724 0.55258,-0.7765 1.07693,-1.58634 1.57612,-2.42621 z m -11.6246,0.10854 v 7.37473 h -5.70611 v -2.65772 c 2.06275,-1.37766 3.95793,-2.95886 5.70611,-4.71701 z m 330.8382,13.69475 c 0.0644,0.004 0.17238,0.0196 0.0558,0.0713 -0.0198,-0.022 -0.0377,-0.0467 -0.0558,-0.0713 z"
         id="path1885"
         inkscape:connector-curvature="0" />
    </g>
    <g
       id="g915"
       inkscape:export-xdpi="73.974503"
       inkscape:export-ydpi="73.974503">
      <ellipse
         transform="matrix(3.6248335,0,0,0.04630092,848.76892,236.58186)"
         ry="77.775429"
         rx="35.814117"
         cy="258.24591"
         cx="-161.96533"
         id="path1978"
         style="opacity:1;fill:#000000;fill-opacity:0.39903846;fill-rule:evenodd;stroke:none;stroke-width:2.44096255;stroke-miterlimit:4;stroke-dasharray:none;stroke-opacity:0.125;filter:url(#filter2420)" />
      <path
         inkscape:connector-curvature="0"
         id="rect1332"
         d="M 8.972602,7.0986297 V 291.84862 H 9.1505537 V 249.57538 H 515.97262 V 7.0986297 Z"
         style="opacity:1;fill:#e3dbdb;fill-opacity:0.97905728;fill-rule:evenodd;stroke:#ffffff;stroke-width:1;stroke-miterlimit:4;stroke-dasharray:none;stroke-opacity:0" />
    </g>
    <g
       id="g911"
       inkscape:export-xdpi="73.974503"
       inkscape:export-ydpi="73.974503">
      <rect
         transform="matrix(0.82698795,0,0,0.55836564,372.0171,152.64885)"
         y="202.65384"
         x="-415.06955"
         height="21.114292"
         width="122.94398"
         id="rect2652"
         style="opacity:1;fill:#a58989;fill-opacity:0.99607843;fill-rule:evenodd;stroke:none;stroke-width:1.47160435;stroke-miterlimit:4;stroke-dasharray:none;stroke-opacity:0.125;filter:url(#filter3058)" />
      <g
         id="g902">
        <flowRoot
           xml:space="preserve"
           id="flowRoot833"
           style="font-style:normal;font-variant:normal;font-weight:normal;font-stretch:normal;font-size:24px;line-height:1.25;font-family:monospace;-inkscape-font-specification:'monospace, Normal';font-variant-ligatures:normal;font-variant-caps:normal;font-variant-numeric:normal;font-feature-settings:normal;text-align:start;letter-spacing:0px;word-spacing:0px;writing-mode:lr-tb;text-anchor:start;fill:#261c1c;fill-opacity:1;stroke:none;stroke-width:1.01957858"
           transform="matrix(0.25964968,0,0,0.25935567,397.51476,129.53592)"><flowRegion
             id="flowRegion835"
             style="font-style:normal;font-variant:normal;font-weight:normal;font-stretch:normal;font-size:24px;font-family:monospace;-inkscape-font-specification:'monospace, Normal';font-variant-ligatures:normal;font-variant-caps:normal;font-variant-numeric:normal;font-feature-settings:normal;text-align:start;writing-mode:lr-tb;text-anchor:start;fill:#261c1c;fill-opacity:1;stroke-width:1.01957858"><rect
               id="rect837"
               width="503.05597"
               height="490.93414"
               x="-1454.6196"
               y="530.57025"
               style="font-style:normal;font-variant:normal;font-weight:normal;font-stretch:normal;font-size:24px;font-family:monospace;-inkscape-font-specification:'monospace, Normal';font-variant-ligatures:normal;font-variant-caps:normal;font-variant-numeric:normal;font-feature-settings:normal;text-align:start;writing-mode:lr-tb;text-anchor:start;fill:#261c1c;fill-opacity:1;stroke-width:1.01957858" /></flowRegion><flowPara
             id="flowPara839"
             style="stroke-width:1.01957858">Created with ♡ by hardik tyagi</flowPara><flowPara
             id="flowPara841"
             style="stroke-width:1.01957858" /></flowRoot>      </g>
    </g>
    <g
       id="g927"
       inkscape:export-xdpi="73.974503"
       inkscape:export-ydpi="73.974503">
      <g
         style="stroke-width:1.83533657;filter:url(#filter2040)"
         transform="matrix(1.0325721,0,0,-0.28750681,563.26782,127.28218)"
         id="g1427">
        <ellipse
           style="opacity:1;fill:#241c1c;fill-opacity:1;fill-rule:evenodd;stroke:none;stroke-width:1.83533657;stroke-miterlimit:4;stroke-dasharray:none;stroke-opacity:0.125"
           id="path1420"
           cx="-292.66013"
           cy="113.38583"
           rx="132.29842"
           ry="7.2162762" />
        <ellipse
           style="opacity:1;fill:#483737;fill-opacity:1;fill-rule:evenodd;stroke:none;stroke-width:1.83533657;stroke-miterlimit:4;stroke-dasharray:none;stroke-opacity:0.125"
           id="path1418"
           cx="-298.27277"
           cy="113.04681"
           rx="100.49334"
           ry="6.3929424" />
        <ellipse
           style="opacity:1;fill:#916f6f;fill-opacity:1;fill-rule:evenodd;stroke:none;stroke-width:1.83533657;stroke-miterlimit:4;stroke-dasharray:none;stroke-opacity:0.125"
           id="path1416"
           cx="-302.28183"
           cy="113.28896"
           rx="69.757347"
           ry="4.6009817" />
        <ellipse
           style="opacity:1;fill:#ac9393;fill-opacity:1;fill-rule:evenodd;stroke:none;stroke-width:1.83533657;stroke-miterlimit:4;stroke-dasharray:none;stroke-opacity:0.125"
           id="path1414"
           cx="-301.74731"
           cy="112.94994"
           rx="46.237629"
           ry="2.5184319" />
      </g>
      <path
         style="opacity:1;fill:#9c7979;fill-opacity:1;fill-rule:evenodd;stroke:none;stroke-width:1;stroke-miterlimit:4;stroke-dasharray:none;stroke-opacity:0.125"
         d="m 129.52623,7.1959136 c -5.34672,0 -9.65101,19.3978564 -9.65101,43.4923584 0,24.09451 4.30429,43.492349 9.65101,43.492349 h 256.71976 c 5.34673,0 9.65195,-19.397839 9.65195,-43.492349 0,-24.094502 -4.30522,-43.4923584 -9.65195,-43.4923584 z"
         id="path1373"
         inkscape:connector-curvature="0" />
      <flowRoot
         transform="matrix(0.69087952,0,0,0.69009722,931.1824,108.86234)"
         style="font-style:normal;font-variant:normal;font-weight:normal;font-stretch:normal;font-size:96px;line-height:1.25;font-family:'Roboto Mono Thin for Powerline';-inkscape-font-specification:'Roboto Mono Thin for Powerline, weight=250';font-variant-ligatures:normal;font-variant-caps:normal;font-variant-numeric:normal;font-feature-settings:normal;text-align:start;letter-spacing:0px;word-spacing:0px;writing-mode:lr-tb;text-anchor:start;fill:#e3dbdb;fill-opacity:1;stroke:none;stroke-width:0.38318297"
         id="flowRoot1222"
         xml:space="preserve"><flowRegion
           style="fill:#e3dbdb;fill-opacity:1;stroke-width:0.38318297"
           id="flowRegion1218"><rect
             style="fill:#e3dbdb;fill-opacity:1;stroke-width:0.38318297"
             y="-138.15073"
             x="-1076.8226"
             height="321.22852"
             width="963.68555"
             id="rect1216" /></flowRegion><flowPara
           style="font-style:normal;font-variant:normal;font-weight:normal;font-stretch:normal;font-size:95.99954224px;font-family:'Latin Modern Mono Caps';-inkscape-font-specification:'Latin Modern Mono Caps, Normal';font-variant-ligatures:normal;font-variant-caps:normal;font-variant-numeric:normal;font-feature-settings:normal;text-align:start;writing-mode:lr-tb;text-anchor:start;fill:#e3dbdb;fill-opacity:1;stroke-width:0.07806953"
           id="flowPara1220">JATG</flowPara></flowRoot>    </g>
    <g
       id="g1385"
       transform="matrix(0.98135314,0,0,0.98024192,422.9919,62.96218)"
       style="opacity:1;stroke-width:1.01957858"
       inkscape:export-xdpi="73.974503"
       inkscape:export-ydpi="73.974503">
      <path
         inkscape:connector-curvature="0"
         id="rect1226"
         d="m -237.67207,54.884429 c -2.90957,0 -5.25187,7.03309 -5.25187,15.76906 0,8.73597 2.3423,15.76907 5.25187,15.76907 h 139.70156 c 2.909575,0 5.251876,-7.0331 5.251876,-15.76907 0,-8.73597 -2.342301,-15.76906 -5.251876,-15.76906 z m 35.87482,5.16196 h 7.7773 c 3.99276,0 6.56187,3.12468 6.56187,6.35361 0,3.22894 -2.53439,6.35414 -6.56187,6.35414 h -4.3403 v 6.38824 h 1.04179 c 0.5208,0 1.42317,1.1e-4 1.42317,1.07642 0,1.04159 -0.90237,1.04128 -1.42317,1.04128 h -4.47879 c -0.5208,0 -1.42369,2.7e-4 -1.42369,-1.04128 0,-1.07631 0.86817,-1.07642 1.42369,-1.07642 h 1.04128 v -16.97778 h -1.04128 c -0.5208,0 -1.42369,-1e-4 -1.42369,-1.07642 0,-1.04159 0.90289,-1.04179 1.42369,-1.04179 z m 3.437,2.11821 v 8.47132 h 3.68039 c 3.33309,0 4.82606,-2.39577 4.82606,-4.23592 0,-1.84014 -1.49297,-4.2354 -4.82606,-4.2354 z m 39.67716,2.39572 h 0.24288 c 1.35407,0 1.59716,0.48561 1.8402,1.28416 l 4.16615,13.2979 c 0.69439,0 1.63194,1.1e-4 1.63194,1.07642 0,1.04159 -1.00695,1.04128 -1.45831,1.04128 h -2.53421 c -0.48608,0 -1.45831,5.3e-4 -1.45831,-1.0759 0,-0.41664 0.27781,-1.07642 1.28468,-1.07642 l -0.48628,-1.59732 h -6.2146 l -0.48628,1.63194 c 0.20832,0 1.28468,2.1e-4 1.28468,1.0418 0,1.07631 -0.97224,1.0759 -1.45831,1.0759 h -2.53422 c -0.45135,0 -1.4583,2.7e-4 -1.4583,-1.04128 0,-1.07631 0.93754,-1.07642 1.63194,-1.07642 l 4.16615,-13.2979 c 0.27776,-0.83327 0.52085,-1.28416 1.8402,-1.28416 z m -23.8311,0.31213 h 3.95789 c 0.45136,0 1.45831,1.1e-4 1.45831,1.07642 0,1.04159 -1.00695,1.0418 -1.45831,1.0418 h -1.04179 v 12.15171 h 7.98556 v -1.45831 c 0,-0.65967 2.4e-4,-1.45831 1.21543,-1.45831 1.18046,0 1.18028,0.83336 1.18028,1.45831 v 2.11822 c 0,1.18047 -0.31255,1.45779 -1.4583,1.45779 h -11.83907 c -0.48608,0 -1.45831,2.7e-4 -1.45831,-1.04128 0,-1.07631 0.79822,-1.07642 1.97869,-1.07642 v -12.15171 c -1.18047,0 -1.97869,-1.1e-4 -1.97869,-1.07642 0,-1.04159 0.97223,-1.0418 1.45831,-1.0418 z m 35.82313,0 h 2.36058 c 0.5208,0 1.52756,2.1e-4 1.52756,1.0418 0,0.24303 -0.10401,0.83296 -0.7984,1.04128 l 3.2985,5.31233 3.26337,-5.31233 c -0.69439,-0.20832 -0.7984,-0.76353 -0.7984,-1.04128 0,-1.04159 1.00676,-1.0418 1.52755,-1.0418 h 2.3611 c 0.52079,0 1.52755,2.1e-4 1.52755,1.0418 0,1.07631 -0.90234,1.07642 -1.80505,1.07642 l -4.89583,7.70754 v 4.44417 c 0.79855,0 1.66657,1.1e-4 1.66657,1.07642 0,1.04159 -0.93732,1.04128 -1.52756,1.04128 h -2.67322 c -0.59023,0 -1.52807,2.7e-4 -1.52807,-1.04128 0,-1.07631 0.86801,-1.07642 1.66656,-1.07642 v -4.44417 l -4.92993,-7.70754 c -0.86799,0 -1.77095,-1.1e-4 -1.77095,-1.07642 0,-1.04159 1.00728,-1.0418 1.52807,-1.0418 z m -11.85302,2.43034 -2.46548,8.08995 h 4.89582 z"
         style="opacity:1;fill:#9a7676;fill-opacity:0.97115383;fill-rule:evenodd;stroke:none;stroke-width:1.01957858;stroke-miterlimit:4;stroke-dasharray:none;stroke-opacity:0.125" />
      <path
         style="opacity:1;fill:#c8b7b7;fill-opacity:0.44711543;fill-rule:evenodd;stroke:none;stroke-width:1.01957846;stroke-miterlimit:4;stroke-dasharray:none;stroke-opacity:0.125"
         d="m -232.08871,57.0055 c -2.70331,0 -4.87957,1.599607 -4.87957,3.586514 0,1.986908 2.17626,3.586514 4.87957,3.586514 h 129.79802 c 2.70331,0 4.88004,-1.599606 4.88004,-3.586514 0,-1.986907 -2.17673,-3.586514 -4.88004,-3.586514 z"
         id="path1377"
         inkscape:connector-curvature="0" />
    </g>
    <path
       inkscape:connector-curvature="0"
       id="path1284"
       d="m 21.61948,-87.339337 c -2.90957,0 -5.25188,7.03258 -5.25188,15.76855 0,8.735976 2.34231,15.769056 5.25188,15.769056 h 139.70155 c 2.90957,0 5.25187,-7.03308 5.25187,-15.769056 0,-8.73597 -2.3423,-15.76855 -5.25187,-15.76855 z m 138.00811,2.78381 a 2.9399648,2.9399648 0 0 1 2.3642,1.39113 2.9399648,2.9399648 0 0 1 0.36897,2.18178 l -5.73712,-1.28261 a 2.9399648,2.9399648 0 0 1 1.32188,-1.85467 2.9399648,2.9399648 0 0 1 1.68207,-0.43563 z m -136.7162,0.30644 a 2.9399648,2.9399648 0 0 1 1.68258,0.43563 2.9399648,2.9399648 0 0 1 1.32189,1.85467 l -5.73712,1.28261 a 2.9399648,2.9399648 0 0 1 0.36897,-2.18178 2.9399648,2.9399648 0 0 1 2.36368,-1.39113 z m 14.84147,1.68982 c 1.7707,0 3.36819,0.69441 4.51394,1.66656 0.45136,-0.86799 0.45095,-0.93754 0.52038,-1.07642 0.1736,-0.24303 0.3476,-0.59014 0.97255,-0.59014 1.04159,0 1.04128,0.86818 1.04128,1.42368 v 4.82555 c 0,0.69439 2.6e-4,1.42369 -1.21491,1.42369 -1.04159,0 -1.11127,-0.55544 -1.21544,-1.14567 -0.48606,-2.81229 -2.3956,-4.40955 -4.47879,-4.40955 -3.09005,0 -6.11074,3.68049 -6.11074,8.85372 0,5.207956 2.98587,8.888346 6.14536,8.888346 1.4235,0 4.23577,-0.83339 4.4788,-4.23592 0.0694,-1.00687 0.86833,-1.00717 1.18081,-1.00717 0.38192,0 1.21491,5.3e-4 1.21491,1.14618 0,3.12477 -2.98552,6.21461 -7.01301,6.21461 -4.51355,0 -8.40259,-4.65235 -8.40259,-11.006046 0,-6.31898 3.88861,-10.97142 8.36745,-10.97142 z m 118.84959,1.48725 5.64255,0.4718 a 2.9399648,2.9399648 0 0 1 -1.20923,1.48208 2.9399648,2.9399648 0 0 1 -4.04626,-0.9555 2.9399648,2.9399648 0 0 1 -0.38706,-0.99838 z m -130.66592,0.30644 a 2.9399648,2.9399648 0 0 1 -0.38706,0.99839 2.9399648,2.9399648 0 0 1 -4.04627,0.95549 2.9399648,2.9399648 0 0 1 -1.20871,-1.48259 z m 119.84126,3.13624 c 1.35407,0 3.26365,0.20853 4.65243,1.0418 0.13888,-0.59024 0.59058,-1.0418 1.18081,-1.0418 1.0763,0 1.0759,0.90289 1.0759,1.42369 v 2.84685 c 0,0.62496 2.6e-4,1.42369 -1.21491,1.42369 -0.31248,0 -0.9725,-1.7e-4 -1.18081,-0.86817 -0.1736,-0.86799 -0.58999,-2.70784 -4.54804,-2.70784 -2.53454,0 -3.99252,1.21502 -3.99252,2.29133 0,0.79855 0.65941,1.70149 2.88147,2.15284 0.59023,0.13888 1.87497,0.34688 2.56935,0.48576 2.29151,0.416626 3.57606,0.659816 4.86069,1.805566 0.79855,0.72912 1.49293,1.80524 1.49293,3.22875 0,2.01374 -1.80556,4.86068 -6.458,4.86068 -0.76383,0 -3.61088,2e-5 -5.38158,-0.9374 0,0 -0.24296,0.9374 -1.14567,0.9374 -1.0763,0 -1.07642,-0.90237 -1.07642,-1.42317 v -2.81223 c 0,-0.62495 2.4e-4,-1.45831 1.21543,-1.45831 1.11103,0 1.14557,0.69422 1.18029,1.18029 0.0694,0.72913 0.27782,1.56248 1.8402,2.01383 1.35407,0.38192 3.12461,0.3819 3.40237,0.3819 3.19421,0 4.16667,-1.70127 4.16667,-2.60398 0,-1.42351 -1.56238,-2.22193 -2.60397,-2.46497 l -2.29134,-0.41651 c -3.05533,-0.55552 -3.92361,-0.72942 -5.10408,-1.5627 -0.90271,-0.65967 -1.80557,-1.701066 -1.80557,-3.228736 0,-2.2915 2.32633,-4.54856 6.28437,-4.54856 z m -96.58842,0.27802 h 5.38158 c 3.95804,0 6.49263,2.29159 6.49263,4.61781 0,2.01374 -1.80549,3.263426 -2.39572,3.610626 1.49294,1.11103 1.49294,2.22232 1.49294,3.99304 0,1.18047 1.7e-4,2.32596 0.86816,2.32596 0.31248,0 0.59005,-0.31237 0.62477,-0.97204 0.0347,-0.69438 0.4859,-1.0418 1.18029,-1.0418 0.86799,0 1.21543,0.48608 1.21543,1.11105 0,1.35405 -1.07618,3.02048 -3.02049,3.02048 -1.04159,0 -3.26388,-0.58986 -3.26388,-3.85351 v -1.35444 c 0,-0.65967 -4e-5,-2.22157 -3.33314,-2.22157 h -2.63859 v 5.03432 c 0.79855,0 1.66656,-5.2e-4 1.66656,1.0759 0,1.04159 -0.97224,1.0418 -1.45831,1.0418 h -2.81223 c -0.48608,0 -1.45831,-2.1e-4 -1.45831,-1.0418 0,-1.07631 0.86802,-1.0759 1.66657,-1.0759 v -12.152226 c -0.79855,0 -1.66657,-1.1e-4 -1.66657,-1.07642 0,-1.04159 0.97223,-1.04128 1.45831,-1.04128 z m 18.44952,0 h 11.80497 c 1.18046,0 1.4583,0.31256 1.4583,1.45831 v 1.70119 c 0,0.62495 -2.4e-4,1.45831 -1.21543,1.45831 -1.18046,0 -1.18028,-0.86808 -1.18028,-1.45831 v -1.0418 h -8.12457 v 4.722186 h 4.30516 c 0,-0.659666 2.5e-4,-1.492926 1.21543,-1.492926 1.18047,0 1.18029,0.86756 1.18029,1.45779 v 2.187456 c 0,0.59025 1.8e-4,1.45831 -1.18029,1.45831 -1.21518,0 -1.21543,-0.83325 -1.21543,-1.49293 h -4.30516 v 5.31234 h 8.85372 v -1.45831 c 0,-0.62495 -2.6e-4,-1.45831 1.21491,-1.45831 1.18047,0 1.18081,0.86808 1.18081,1.45831 v 2.1177 c 0,1.18047 -0.31256,1.45831 -1.45831,1.45831 H 67.63889 c -0.48608,0 -1.45779,-2.1e-4 -1.45779,-1.0418 0,-1.07631 0.83291,-1.0759 1.80506,-1.0759 v -12.152226 c -0.97215,0 -1.80506,-1.1e-4 -1.80506,-1.07642 0,-1.04159 0.97171,-1.04128 1.45779,-1.04128 z m 17.89452,0 h 6.42286 c 4.51356,0 7.32617,4.13184 7.32617,8.298196 0,4.30524 -2.95149,8.08943 -7.32617,8.08943 h -6.42286 c -0.45135,0 -1.45831,-2.1e-4 -1.45831,-1.0418 0,-1.07631 0.93755,-1.0759 1.63194,-1.0759 v -12.152226 c -0.69439,0 -1.63194,-1.1e-4 -1.63194,-1.07642 0,-1.04159 1.00696,-1.04128 1.45831,-1.04128 z m 20.94962,0 h 7.1174 c 0.48608,0 1.45831,1.1e-4 1.45831,1.07642 0,1.04159 -1.00695,1.04128 -1.45831,1.04128 h -2.3611 v 12.152226 h 2.3611 c 0.48608,0 1.45831,-5.2e-4 1.45831,1.0759 0,1.04159 -1.00695,1.0418 -1.45831,1.0418 h -7.1174 c -0.45136,0 -1.45831,-2.1e-4 -1.45831,-1.0418 0,-1.07631 0.97223,-1.0759 1.45831,-1.0759 h 2.36058 v -12.152226 h -2.36058 c -0.45136,0 -1.45831,2.6e-4 -1.45831,-1.04128 0,-1.07631 0.97223,-1.07642 1.45831,-1.07642 z m 15.32465,0 h 12.95063 c 1.18047,0 1.4583,0.31256 1.4583,1.45831 v 1.70119 c 0,0.62495 -2.3e-4,1.45831 -1.21542,1.45831 -1.18047,0 -1.18029,-0.86808 -1.18029,-1.45831 v -1.0418 h -4.34031 v 12.152226 h 0.90279 c 0.52079,0 1.45831,-5.2e-4 1.45831,1.0759 0,1.04159 -0.97224,1.0418 -1.45831,1.0418 h -4.20078 c -0.5208,0 -1.4583,-1.1e-4 -1.4583,-1.07642 0,-1.04158 0.97222,-1.04128 1.4583,-1.04128 h 0.90279 v -12.152226 h -4.3403 v 1.0418 c 0,0.62495 2.6e-4,1.45831 -1.21492,1.45831 -1.18047,0 -1.1808,-0.86808 -1.1808,-1.45831 v -1.70119 c 0,-1.18047 0.31256,-1.45831 1.45831,-1.45831 z m -70.01433,2.1177 v 4.999696 h 2.46496 c 2.74285,0 4.40955,-1.249686 4.40955,-2.499586 0,-1.24991 -1.6667,-2.50011 -4.40955,-2.50011 z m 36.30941,0 v 12.152226 h 3.19412 c 3.74973,0 5.58984,-3.19426 5.58984,-5.9371 0,-2.916466 -1.87483,-6.215126 -5.58984,-6.215126 z m 71.42096,11.274766 a 2.9399648,2.9399648 0 0 1 2.23656,1.07073 2.9399648,2.9399648 0 0 1 0.51831,0.93689 l -5.65444,0.29457 a 2.9399648,2.9399648 0 0 1 0.99788,-1.63247 2.9399648,2.9399648 0 0 1 1.90169,-0.66972 z m -136.50795,0.30644 a 2.9399648,2.9399648 0 0 1 1.9017,0.66972 2.9399648,2.9399648 0 0 1 0.99787,1.63246 l -5.65444,-0.29455 a 2.9399648,2.9399648 0 0 1 0.51832,-0.93689 2.9399648,2.9399648 0 0 1 2.23655,-1.07074 z m 133.54534,2.38951 5.85752,0.49661 a 2.9399648,2.9399648 0 0 1 -1.05936,2.01642 2.9399648,2.9399648 0 0 1 -4.13825,-0.40101 2.9399648,2.9399648 0 0 1 -0.65991,-2.11202 z m -130.58272,0.30644 a 2.9399648,2.9399648 0 0 1 -0.65991,2.11202 2.9399648,2.9399648 0 0 1 -4.13825,0.40102 2.9399648,2.9399648 0 0 1 -1.05937,-2.01643 z"
       style="opacity:1;fill:#9a7676;fill-opacity:0.99607843;fill-rule:evenodd;stroke:none;stroke-width:1;stroke-miterlimit:4;stroke-dasharray:none;stroke-opacity:0.125" />
    <path
       inkscape:connector-curvature="0"
       id="path1286"
       d="m 21.61948,-165.11495 c -2.90957,0 -5.25188,7.03309 -5.25188,15.76906 0,8.73597 2.34231,15.76906 5.25188,15.76906 h 139.70155 c 2.90957,0 5.25187,-7.03309 5.25187,-15.76906 0,-8.73597 -2.3423,-15.76906 -5.25187,-15.76906 z m 137.87117,2.50372 a 2.9399648,2.9399648 0 0 1 2.93987,2.93987 2.9399648,2.9399648 0 0 1 -0.19534,1.05265 l -4.55217,-3.36672 a 2.9399648,2.9399648 0 0 1 1.80764,-0.6258 z m -136.44232,0.30644 a 2.9399648,2.9399648 0 0 1 1.80764,0.6258 l -4.55217,3.36672 a 2.9399648,2.9399648 0 0 1 -0.19534,-1.05265 2.9399648,2.9399648 0 0 1 2.93987,-2.93987 z m 134.33547,0.58343 4.20646,4.10672 a 2.9399648,2.9399648 0 0 1 -2.09961,0.88315 2.9399648,2.9399648 0 0 1 -2.93987,-2.93987 2.9399648,2.9399648 0 0 1 0.83302,-2.05 z m -132.22862,0.30644 a 2.9399648,2.9399648 0 0 1 0.83302,2.05 2.9399648,2.9399648 0 0 1 -2.93987,2.93987 2.9399648,2.9399648 0 0 1 -2.09961,-0.88315 z m 32.33911,1.46192 h 7.7773 c 3.99276,0 6.56188,3.12469 6.56188,6.35362 0,3.22893 -2.5344,6.35413 -6.56188,6.35413 h -4.3403 v 6.38824 h 1.0418 c 0.5208,0 1.42317,1.2e-4 1.42317,1.07642 0,1.0416 -0.90237,1.04129 -1.42317,1.04129 h -4.4788 c -0.5208,0 -1.42369,2.6e-4 -1.42369,-1.04129 0,-1.0763 0.86817,-1.07642 1.42369,-1.07642 h 1.04128 v -16.97777 h -1.04128 c -0.5208,0 -1.42369,-1.1e-4 -1.42369,-1.07642 0,-1.04159 0.90289,-1.0418 1.42369,-1.0418 z m 3.437,2.11822 v 8.47132 h 3.68039 c 3.3331,0 4.82607,-2.39578 4.82607,-4.23592 0,-1.84014 -1.49297,-4.2354 -4.82607,-4.2354 z m 39.67716,2.39572 h 0.24288 c 1.35407,0 1.59716,0.48561 1.8402,1.28416 l 4.16615,13.29789 c 0.6944,0 1.63195,1.2e-4 1.63195,1.07642 0,1.0416 -1.00695,1.04129 -1.45831,1.04129 h -2.53421 c -0.48608,0 -1.45831,5.2e-4 -1.45831,-1.07591 0,-0.41664 0.2778,-1.07642 1.28467,-1.07642 l -0.48627,-1.59732 h -6.21461 l -0.48627,1.63194 c 0.20832,0 1.28467,2.1e-4 1.28467,1.0418 0,1.07631 -0.97224,1.07591 -1.45831,1.07591 h -2.53421 c -0.45135,0 -1.45831,2.6e-4 -1.45831,-1.04129 0,-1.0763 0.93754,-1.07642 1.63194,-1.07642 l 4.16616,-13.29789 c 0.27776,-0.83327 0.52084,-1.28416 1.84019,-1.28416 z m -23.8311,0.31213 h 3.9579 c 0.45136,0 1.45831,10e-5 1.45831,1.07642 0,1.04159 -1.00695,1.04179 -1.45831,1.04179 h -1.0418 v 12.15171 h 7.98556 v -1.4583 c 0,-0.65968 2.4e-4,-1.45831 1.21543,-1.45831 1.18046,0 1.18029,0.83335 1.18029,1.45831 v 2.11821 c 0,1.18047 -0.31256,1.4578 -1.45831,1.4578 H 76.77735 c -0.48608,0 -1.45831,2.6e-4 -1.45831,-1.04129 0,-1.0763 0.79822,-1.07642 1.97869,-1.07642 v -12.15171 c -1.18047,0 -1.97869,-1.1e-4 -1.97869,-1.07642 0,-1.04159 0.97223,-1.04179 1.45831,-1.04179 z m 35.82314,0 h 2.36058 c 0.52079,0 1.52755,2e-4 1.52755,1.04179 0,0.24304 -0.10401,0.83296 -0.7984,1.04128 l 3.29851,5.31234 3.26336,-5.31234 c -0.69439,-0.20832 -0.7984,-0.76352 -0.7984,-1.04128 0,-1.04159 1.00677,-1.04179 1.52756,-1.04179 h 2.3611 c 0.52079,0 1.52755,2e-4 1.52755,1.04179 0,1.07631 -0.90235,1.07642 -1.80506,1.07642 l -4.89582,7.70754 v 4.44417 c 0.79855,0 1.66656,1.2e-4 1.66656,1.07642 0,1.0416 -0.93731,1.04129 -1.52755,1.04129 h -2.67322 c -0.59023,0 -1.52808,2.6e-4 -1.52808,-1.04129 0,-1.0763 0.86802,-1.07642 1.66657,-1.07642 v -4.44417 l -4.92993,-7.70754 c -0.86799,0 -1.77096,-1.1e-4 -1.77096,-1.07642 0,-1.04159 1.00729,-1.04179 1.52808,-1.04179 z m -11.85303,2.43034 -2.46548,8.08994 h 4.89583 z m 58.77626,10.68565 a 2.9399648,2.9399648 0 0 1 2.23656,1.07074 2.9399648,2.9399648 0 0 1 0.51831,0.93689 l -5.65444,0.29455 a 2.9399648,2.9399648 0 0 1 0.99788,-1.63245 2.9399648,2.9399648 0 0 1 1.90169,-0.66973 z m -136.50795,0.30644 a 2.9399648,2.9399648 0 0 1 1.9017,0.66973 2.9399648,2.9399648 0 0 1 0.99787,1.63246 l -5.65444,-0.29456 a 2.9399648,2.9399648 0 0 1 0.51832,-0.93689 2.9399648,2.9399648 0 0 1 2.23655,-1.07074 z m 133.54534,2.38952 5.85752,0.49661 a 2.9399648,2.9399648 0 0 1 -1.05936,2.01641 2.9399648,2.9399648 0 0 1 -4.13825,-0.401 2.9399648,2.9399648 0 0 1 -0.65991,-2.11202 z m -130.58272,0.30644 a 2.9399648,2.9399648 0 0 1 -0.65991,2.11202 2.9399648,2.9399648 0 0 1 -4.13825,0.40101 2.9399648,2.9399648 0 0 1 -1.05937,-2.01642 z"
       style="opacity:1;fill:#9a7676;fill-opacity:0.99607843;fill-rule:evenodd;stroke:none;stroke-width:1;stroke-miterlimit:4;stroke-dasharray:none;stroke-opacity:0.125" />
    <path
       inkscape:connector-curvature="0"
       id="path1288"
       d="m 21.61948,-126.22702 c -2.90957,0 -5.25188,7.03257 -5.25188,15.76854 0,8.73599 2.34231,15.769073 5.25188,15.769073 h 139.70155 c 2.90957,0 5.25187,-7.033083 5.25187,-15.769073 0,-8.73597 -2.3423,-15.76854 -5.25187,-15.76854 z m 137.9492,2.39572 a 2.9399648,2.9399648 0 0 1 1.3994,0.39739 2.9399648,2.9399648 0 0 1 0.81183,0.69763 l -5.19813,2.24431 a 2.9399648,2.9399648 0 0 1 0.36742,-1.87741 2.9399648,2.9399648 0 0 1 2.41122,-1.45985 2.9399648,2.9399648 0 0 1 0.20826,-0.002 z m -136.39012,0.30851 a 2.9399648,2.9399648 0 0 1 2.41174,1.45986 2.9399648,2.9399648 0 0 1 0.36741,1.87688 l -5.19865,-2.24379 a 2.9399648,2.9399648 0 0 1 0.81236,-0.69763 2.9399648,2.9399648 0 0 1 1.60714,-0.39532 z m 139.14551,1.84898 a 2.9399648,2.9399648 0 0 1 -0.29146,2.25878 2.9399648,2.9399648 0 0 1 -4.01939,1.06453 2.9399648,2.9399648 0 0 1 -1.35341,-1.75028 z m -125.50862,0.22686 c 6.42315,0 7.15253,0.97206 7.15253,11.00605 0,10.03397 -0.7641,10.971423 -7.15253,10.971423 -6.42314,0 -7.15202,-0.937453 -7.15202,-10.971423 0,-10.06871 0.72888,-11.00605 7.15202,-11.00605 z m -16.60002,0.0796 5.66425,1.57303 a 2.9399648,2.9399648 0 0 1 -1.35392,1.75028 2.9399648,2.9399648 0 0 1 -4.01888,-1.06453 2.9399648,2.9399648 0 0 1 -0.29145,-2.25878 z m 16.60002,2.03812 c -2.84701,0 -3.92306,0.4165 -4.37441,2.46496 -0.38192,1.59712 -0.38189,3.95812 -0.38189,6.11074 0,1.90959 -1.3e-4,4.93018 0.41651,6.70089 0.41664,1.73597 1.28446,2.46548 4.33979,2.46548 3.09006,0 3.99301,-0.72944 4.37493,-2.67374 0.38192,-1.87486 0.38189,-4.34001 0.38189,-6.49263 0,-2.1179 1.2e-4,-4.7218 -0.41652,-6.35361 -0.5208,-1.90959 -1.73632,-2.22209 -4.3403,-2.22209 z m 72.96557,2.81223 c 6.24954,0 6.90914,0.79877 6.90914,8.47184 0,7.67303 -0.6596,8.471313 -6.90914,8.471313 -6.28427,0 -6.94376,-0.798283 -6.94376,-8.471313 0,-7.70777 0.69421,-8.47184 6.94376,-8.47184 z m 35.71927,0 c 1.35407,0 3.26364,0.20853 4.65243,1.0418 0.13888,-0.59024 0.59006,-1.0418 1.18029,-1.0418 1.07631,0 1.07642,0.90289 1.07642,1.42369 v 2.84685 c 0,0.62495 -2.4e-4,1.42369 -1.21543,1.42369 -0.31248,0 -0.97197,-1.8e-4 -1.18029,-0.86817 -0.1736,-0.86799 -0.59001,-2.70784 -4.54805,-2.70784 -2.53454,0 -3.99303,1.21502 -3.99303,2.29133 0,0.79855 0.65993,1.70149 2.88199,2.15284 0.59023,0.13888 1.87445,0.34688 2.56884,0.48576 2.2915,0.41663 3.57657,0.65982 4.8612,1.80557 0.79856,0.72912 1.49293,1.80524 1.49293,3.22875 0,2.01374 -1.80556,4.860683 -6.458,4.860683 -0.76383,0 -3.61089,2e-5 -5.38159,-0.937413 0,0 -0.24295,0.937413 -1.14566,0.937413 -1.07631,0 -1.07642,-0.902373 -1.07642,-1.423173 v -2.81223 c 0,-0.62495 -2.6e-4,-1.45831 1.21491,-1.45831 1.11104,0 1.14608,0.69422 1.18081,1.18029 0.0694,0.72911 0.2778,1.56248 1.84019,2.01383 1.35407,0.38192 3.12463,0.38189 3.40238,0.38189 3.19422,0 4.16615,-1.70126 4.16615,-2.60397 0,-1.42351 -1.56238,-2.22193 -2.60397,-2.46497 l -2.29134,-0.41703 c -3.05532,-0.55551 -3.92309,-0.7289 -5.10356,-1.56218 -0.90271,-0.65967 -1.80557,-1.70107 -1.80557,-3.22874 0,-2.2915 2.32633,-4.54856 6.28437,-4.54856 z m -96.38017,0.27802 h 6.90914 c 3.92332,0 6.35362,2.56935 6.35362,5.17333 0,2.46509 -2.32614,5.13818 -6.35362,5.13818 h -4.16667 v 3.9579 c 0.97215,0 1.80558,1.1e-4 1.80558,1.07642 0,1.041593 -0.97223,1.041803 -1.45831,1.041803 h -3.08974 c -0.48607,0 -1.4583,-2.1e-4 -1.4583,-1.041803 0,-1.07631 0.8329,-1.07642 1.80505,-1.07642 v -12.15171 c -0.97215,0 -1.80505,-1.1e-4 -1.80505,-1.07642 0,-1.04159 0.97223,-1.04128 1.4583,-1.04128 z m 17.68575,0 H 79.7565 c 1.18047,0 1.45779,0.31256 1.45779,1.45831 v 1.70119 c 0,0.62495 2.6e-4,1.45831 -1.21491,1.45831 -1.18047,0 -1.18081,-0.86808 -1.18081,-1.45831 v -1.0418 h -4.33979 v 12.15171 h 0.90279 c 0.52079,0 1.45831,1.1e-4 1.45831,1.07642 0,1.041593 -0.97224,1.041803 -1.45831,1.041803 h -4.20129 c -0.52079,0 -1.4578,-1.1e-4 -1.4578,-1.076423 0,-1.04159 0.97173,-1.0418 1.4578,-1.0418 h 0.90278 v -12.15171 h -4.33978 v 1.0418 c 0,0.62495 -2.4e-4,1.45831 -1.21543,1.45831 -1.18047,0 -1.18029,-0.86808 -1.18029,-1.45831 v -1.70119 c 0,-1.18047 0.31256,-1.45831 1.45831,-1.45831 z m 21.15788,0 h 7.11739 c 0.48607,0 1.45831,1.1e-4 1.45831,1.07642 0,1.04159 -1.00696,1.04128 -1.45831,1.04128 h -2.36109 v 12.15171 h 2.36109 c 0.48607,0 1.45831,1.1e-4 1.45831,1.07642 0,1.041593 -1.00696,1.041803 -1.45831,1.041803 h -7.11739 c -0.45135,0 -1.45831,-2.1e-4 -1.45831,-1.041803 0,-1.07631 0.97224,-1.07642 1.45831,-1.07642 h 2.3611 v -12.15171 h -2.3611 c -0.45135,0 -1.45831,2.6e-4 -1.45831,-1.04128 0,-1.07631 0.97224,-1.07642 1.45831,-1.07642 z m 34.08681,0 h 1.77095 c 0.65968,0 1.52755,-2.6e-4 2.08308,1.21491 l 5.76347,12.84625 h 0.0346 v -11.94346 c -0.79856,0 -1.66656,-1.1e-4 -1.66656,-1.07642 0,-1.04159 0.97222,-1.04128 1.4583,-1.04128 h 2.46497 c 0.48608,0 1.45831,-2.6e-4 1.45831,1.04128 0,1.07631 -0.86802,1.07642 -1.66657,1.07642 v 12.81162 c 0,1.354073 -0.48596,1.458313 -1.52755,1.458313 -0.69439,0 -1.56218,-2.4e-4 -2.1177,-1.215433 l -5.76347,-12.84624 h -0.0346 v 11.94345 c 0.79855,0 1.66657,1.1e-4 1.66657,1.07642 0,1.041593 -0.97223,1.041803 -1.45831,1.041803 h -2.46549 c -0.48608,0 -1.4578,-2.1e-4 -1.4578,-1.041803 0,-1.07631 0.86802,-1.07642 1.66657,-1.07642 v -12.15171 c -0.79855,0 -1.66657,-1.1e-4 -1.66657,-1.07642 0,-1.04159 0.97172,-1.04128 1.4578,-1.04128 z m -12.30416,1.8402 c -4.09692,0 -4.51342,0.59031 -4.51342,6.11074 0,6.04121 0.48583,6.59649 4.54804,6.59649 4.02748,0 4.51394,-0.58999 4.51394,-6.59649 0,-5.55516 -0.41691,-6.11074 -4.54856,-6.11074 z m -57.88381,0.2775 v 6.07612 h 3.54139 c 2.95118,0 4.58318,-1.56269 4.58318,-3.05563 0,-1.35407 -1.49312,-3.02049 -4.58318,-3.02049 z m 107.53401,10.89339 a 2.9399648,2.9399648 0 0 1 3.00757,2.55282 2.9399648,2.9399648 0 0 1 -0.0558,1.069183 l -4.95422,-2.740403 a 2.9399648,2.9399648 0 0 1 1.70946,-0.85783 2.9399648,2.9399648 0 0 1 0.29301,-0.0238 z m -136.25422,0.30644 a 2.9399648,2.9399648 0 0 1 0.29301,0.0238 2.9399648,2.9399648 0 0 1 1.70997,0.85783 l -4.95473,2.739893 a 2.9399648,2.9399648 0 0 1 -0.0553,-1.069193 2.9399648,2.9399648 0 0 1 3.00705,-2.5523 z m 133.98976,0.87644 4.70875,3.519163 a 2.9399648,2.9399648 0 0 1 -1.96525,1.15083 2.9399648,2.9399648 0 0 1 -3.30058,-2.52852 2.9399648,2.9399648 0 0 1 0.55708,-2.141473 z m -131.72478,0.30644 a 2.9399648,2.9399648 0 0 1 0.55656,2.141473 2.9399648,2.9399648 0 0 1 -3.30006,2.52852 2.9399648,2.9399648 0 0 1 -1.96577,-1.15135 z"
       style="opacity:1;fill:#9a7676;fill-opacity:0.99607843;fill-rule:evenodd;stroke:none;stroke-width:1;stroke-miterlimit:4;stroke-dasharray:none;stroke-opacity:0.125" />
    <rect
       style="opacity:1;fill:#800000;fill-opacity:1;fill-rule:evenodd;stroke:none;stroke-width:1;stroke-miterlimit:4;stroke-dasharray:none;stroke-opacity:0.125"
       id="rect1335"
       width="188.15775"
       height="191.36497"
       x="212.50177"
       y="-320.31235" />
    <g
       id="g1115"
       transform="matrix(0.44717764,0,0,0.47180091,389.25111,-255.34635)"
       style="stroke-width:2.17711067;filter:url(#filter983)">
      <ellipse
         ry="24.379465"
         rx="25.702381"
         cy="57.174099"
         cx="-283.86014"
         id="ellipse1103"
         style="opacity:1;fill:#ffffff;fill-opacity:1;fill-rule:evenodd;stroke:#ffffff;stroke-width:2.17711067;stroke-miterlimit:4;stroke-dasharray:none;stroke-opacity:0" />
      <ellipse
         style="opacity:1;fill:#ffffff;fill-opacity:1;fill-rule:evenodd;stroke:#ffffff;stroke-width:2.17711067;stroke-miterlimit:4;stroke-dasharray:none;stroke-opacity:0"
         id="ellipse1105"
         cx="-250.59824"
         cy="46.968746"
         rx="36.285713"
         ry="30.12175" />
      <ellipse
         ry="30.12175"
         rx="39.309521"
         cy="62.087795"
         cx="-240.39285"
         id="ellipse1107"
         style="opacity:1;fill:#ffffff;fill-opacity:1;fill-rule:evenodd;stroke:#ffffff;stroke-width:2.17711067;stroke-miterlimit:4;stroke-dasharray:none;stroke-opacity:0" />
      <ellipse
         style="opacity:1;fill:#ffffff;fill-opacity:1;fill-rule:evenodd;stroke:#ffffff;stroke-width:2.17711067;stroke-miterlimit:4;stroke-dasharray:none;stroke-opacity:0"
         id="ellipse1109"
         cx="-192.57886"
         cy="42.433029"
         rx="52.349697"
         ry="30.12175" />
      <ellipse
         ry="30.12175"
         rx="44.034222"
         cy="66.623505"
         cx="-187.66518"
         id="ellipse1111"
         style="opacity:1;fill:#ffffff;fill-opacity:1;fill-rule:evenodd;stroke:#ffffff;stroke-width:2.17711067;stroke-miterlimit:4;stroke-dasharray:none;stroke-opacity:0" />
      <ellipse
         style="opacity:1;fill:#ffffff;fill-opacity:1;fill-rule:evenodd;stroke:#ffffff;stroke-width:2.17711067;stroke-miterlimit:4;stroke-dasharray:none;stroke-opacity:0"
         id="ellipse1113"
         cx="-133.99257"
         cy="55.662193"
         rx="44.034222"
         ry="30.12175" />
    </g>
    <g
       id="g1389"
       transform="matrix(0.98135314,0,0,0.98024192,422.9919,62.96218)"
       style="stroke-width:1.01957858"
       inkscape:export-xdpi="73.974503"
       inkscape:export-ydpi="73.974503">
      <path
         inkscape:connector-curvature="0"
         id="rect1224"
         d="m -237.67207,96.597168 c -2.90957,0 -5.25187,7.032572 -5.25187,15.768542 0,8.73598 2.3423,15.76907 5.25187,15.76907 h 139.70156 c 2.909575,0 5.251876,-7.03309 5.251876,-15.76907 0,-8.73597 -2.342301,-15.768542 -5.251876,-15.768542 z m 15.19597,4.780072 c 6.42315,0 7.15254,0.97206 7.15254,11.00605 0,10.03398 -0.76411,10.97142 -7.15254,10.97142 -6.42314,0 -7.15201,-0.93744 -7.15201,-10.97142 0,-10.06871 0.72887,-11.00605 7.15201,-11.00605 z m 0,2.1177 c -2.84701,0 -3.92305,0.4165 -4.3744,2.46496 -0.38192,1.59711 -0.38189,3.95812 -0.38189,6.11074 0,1.90959 -1.3e-4,4.93018 0.41651,6.70089 0.41664,1.73598 1.28445,2.46548 4.33978,2.46548 3.09006,0 3.99301,-0.72944 4.37493,-2.67374 0.38192,-1.87486 0.38189,-4.34001 0.38189,-6.49263 0,-2.1179 1.3e-4,-4.72179 -0.41651,-6.35361 -0.5208,-1.90959 -1.73633,-2.22209 -4.34031,-2.22209 z m 72.96558,2.81223 c 6.24954,0 6.90913,0.79878 6.90913,8.47184 0,7.67304 -0.65959,8.47131 -6.90913,8.47131 -6.28427,0 -6.94377,-0.79827 -6.94377,-8.47131 0,-7.70777 0.69422,-8.47184 6.94377,-8.47184 z m 35.71926,0 c 1.35407,0 3.26364,0.20853 4.65243,1.0418 0.13888,-0.59024 0.59006,-1.0418 1.18029,-1.0418 1.07631,0 1.07642,0.90289 1.07642,1.42369 v 2.84685 c 0,0.62495 -2.4e-4,1.42369 -1.21543,1.42369 -0.31248,0 -0.97197,-1.8e-4 -1.18029,-0.86817 -0.1736,-0.86799 -0.59,-2.70784 -4.54804,-2.70784 -2.53454,0 -3.99304,1.21502 -3.99304,2.29133 0,0.79855 0.65994,1.70149 2.882,2.15284 0.59023,0.13888 1.87444,0.34688 2.56883,0.48576 2.2915,0.41663 3.57657,0.65982 4.8612,1.80557 0.79856,0.72912 1.49294,1.80524 1.49294,3.22875 0,2.01374 -1.80557,4.86068 -6.45801,4.86068 -0.76383,0 -3.61088,2e-5 -5.38158,-0.93741 0,0 -0.24296,0.93741 -1.14567,0.93741 -1.07631,0 -1.07642,-0.90237 -1.07642,-1.42317 v -2.81223 c 0,-0.62495 -2.6e-4,-1.45831 1.21491,-1.45831 1.11104,0 1.14609,0.69422 1.18081,1.18029 0.0694,0.72911 0.27781,1.56248 1.8402,2.01383 1.35407,0.38192 3.12462,0.38189 3.40237,0.38189 3.19422,0 4.16616,-1.70126 4.16616,-2.60397 0,-1.42351 -1.56239,-2.22193 -2.60398,-2.46497 l -2.29133,-0.41703 c -3.05533,-0.55551 -3.92309,-0.7289 -5.10356,-1.56218 -0.90271,-0.65967 -1.80558,-1.70107 -1.80558,-3.22874 0,-2.2915 2.32633,-4.54856 6.28437,-4.54856 z m -96.38016,0.27802 h 6.90914 c 3.92332,0 6.35362,2.56935 6.35362,5.17333 0,2.46509 -2.32614,5.13818 -6.35362,5.13818 h -4.16667 v 3.9579 c 0.97215,0 1.80557,1.1e-4 1.80557,1.07642 0,1.04159 -0.97223,1.0418 -1.45831,1.0418 h -3.08973 c -0.48608,0 -1.45831,-2.1e-4 -1.45831,-1.0418 0,-1.07631 0.83291,-1.07642 1.80506,-1.07642 v -12.15171 c -0.97215,0 -1.80506,-1.1e-4 -1.80506,-1.07642 0,-1.04159 0.97223,-1.04128 1.45831,-1.04128 z m 17.68574,0 h 12.95063 c 1.18047,0 1.45779,0.31256 1.45779,1.45831 v 1.70119 c 0,0.62495 2.7e-4,1.45831 -1.21491,1.45831 -1.18047,0 -1.18081,-0.86808 -1.18081,-1.45831 v -1.0418 h -4.33978 v 12.15171 h 0.90279 c 0.52079,0 1.4583,1.1e-4 1.4583,1.07642 0,1.04159 -0.97223,1.0418 -1.4583,1.0418 h -4.2013 c -0.52079,0 -1.45779,-1.1e-4 -1.45779,-1.07642 0,-1.04159 0.97172,-1.0418 1.45779,-1.0418 h 0.90279 v -12.15171 h -4.33979 v 1.0418 c 0,0.62495 -2.4e-4,1.45831 -1.21543,1.45831 -1.18047,0 -1.18029,-0.86808 -1.18029,-1.45831 v -1.70119 c 0,-1.18047 0.31256,-1.45831 1.45831,-1.45831 z m 21.15788,0 h 7.1174 c 0.48607,0 1.45831,1.1e-4 1.45831,1.07642 0,1.04159 -1.00696,1.04128 -1.45831,1.04128 h -2.3611 v 12.15171 h 2.3611 c 0.48607,0 1.45831,1.1e-4 1.45831,1.07642 0,1.04159 -1.00696,1.0418 -1.45831,1.0418 h -7.1174 c -0.45135,0 -1.45831,-2.1e-4 -1.45831,-1.0418 0,-1.07631 0.97224,-1.07642 1.45831,-1.07642 h 2.3611 v -12.15171 h -2.3611 c -0.45135,0 -1.45831,2.6e-4 -1.45831,-1.04128 0,-1.07631 0.97224,-1.07642 1.45831,-1.07642 z m 34.08681,0 h 1.77095 c 0.65968,0 1.52756,-2.6e-4 2.08308,1.21491 l 5.76347,12.84625 h 0.0346 v -11.94346 c -0.79856,0 -1.66657,-1.1e-4 -1.66657,-1.07642 0,-1.04159 0.97223,-1.04128 1.45831,-1.04128 h 2.46496 c 0.48608,0 1.45831,-2.6e-4 1.45831,1.04128 0,1.07631 -0.86801,1.07642 -1.66656,1.07642 v 12.81162 c 0,1.35407 -0.48597,1.45831 -1.52756,1.45831 -0.69439,0 -1.56218,-2.4e-4 -2.1177,-1.21543 l -5.76347,-12.84624 h -0.0346 v 11.94345 c 0.79855,0 1.66656,1.1e-4 1.66656,1.07642 0,1.04159 -0.97223,1.0418 -1.45831,1.0418 h -2.46548 c -0.48608,0 -1.45779,-2.1e-4 -1.45779,-1.0418 0,-1.07631 0.86801,-1.07642 1.66656,-1.07642 v -12.15171 c -0.79855,0 -1.66656,-1.1e-4 -1.66656,-1.07642 0,-1.04159 0.97171,-1.04128 1.45779,-1.04128 z m -12.30416,1.8402 c -4.09692,0 -4.51342,0.59031 -4.51342,6.11074 0,6.04122 0.48584,6.59649 4.54805,6.59649 4.02748,0 4.51393,-0.58999 4.51393,-6.59649 0,-5.55515 -0.41691,-6.11074 -4.54856,-6.11074 z m -57.8838,0.2775 v 6.07612 h 3.54138 c 2.95118,0 4.58319,-1.56269 4.58319,-3.05563 0,-1.35407 -1.49313,-3.02049 -4.58319,-3.02049 z"
         style="opacity:1;fill:#9a7676;fill-opacity:0.89903846;fill-rule:evenodd;stroke:none;stroke-width:1.01957858;stroke-miterlimit:4;stroke-dasharray:none;stroke-opacity:0.125" />
      <path
         inkscape:connector-curvature="0"
         id="path1379"
         d="m -232.08871,99.338833 c -2.70331,0 -4.87957,1.599607 -4.87957,3.586517 0,1.98691 2.17626,3.58651 4.87957,3.58651 h 129.79802 c 2.70331,0 4.88004,-1.5996 4.88004,-3.58651 0,-1.98691 -2.17673,-3.586517 -4.88004,-3.586517 z"
         style="opacity:1;fill:#c8b7b7;fill-opacity:0.44711543;fill-rule:evenodd;stroke:none;stroke-width:1.01957846;stroke-miterlimit:4;stroke-dasharray:none;stroke-opacity:0.125" />
    </g>
    <g
       id="g1393"
       transform="matrix(0.98135314,0,0,0.98024192,422.9919,62.96218)"
       style="stroke-width:1.01957858"
       inkscape:export-xdpi="73.974503"
       inkscape:export-ydpi="73.974503">
      <path
         inkscape:connector-curvature="0"
         id="rect1161"
         d="m -237.67207,138.30968 c -2.90957,0 -5.25187,7.03258 -5.25187,15.76855 0,8.73597 2.3423,15.76906 5.25187,15.76906 h 139.70156 c 2.909575,0 5.251876,-7.03309 5.251876,-15.76906 0,-8.73597 -2.342301,-15.76855 -5.251876,-15.76855 z m 16.13339,4.78007 c 1.7707,0 3.36818,0.69441 4.51393,1.66656 0.45136,-0.86799 0.45095,-0.93754 0.52038,-1.07642 0.1736,-0.24303 0.3476,-0.59014 0.97255,-0.59014 1.04159,0 1.04128,0.86817 1.04128,1.42368 v 4.82555 c 0,0.69439 2.7e-4,1.42369 -1.21491,1.42369 -1.04159,0 -1.11127,-0.55544 -1.21543,-1.14567 -0.48607,-2.81229 -2.39561,-4.40955 -4.4788,-4.40955 -3.09005,0 -6.11073,3.68049 -6.11073,8.85372 0,5.20796 2.98587,8.88835 6.14536,8.88835 1.4235,0 4.23576,-0.83339 4.47879,-4.23592 0.0694,-1.00687 0.86833,-1.00717 1.18081,-1.00717 0.38192,0 1.21491,5.3e-4 1.21491,1.14618 0,3.12477 -2.98552,6.21461 -7.01301,6.21461 -4.51355,0 -8.40258,-4.65235 -8.40258,-11.00605 0,-6.31898 3.88861,-10.97142 8.36745,-10.97142 z m 108.02492,4.92993 c 1.35407,0 3.26365,0.20853 4.65243,1.0418 0.13888,-0.59024 0.59058,-1.0418 1.18081,-1.0418 1.07631,0 1.0759,0.90289 1.0759,1.42369 v 2.84685 c 0,0.62496 2.7e-4,1.42369 -1.21491,1.42369 -0.31248,0 -0.97249,-1.7e-4 -1.1808,-0.86817 -0.1736,-0.86799 -0.59,-2.70784 -4.54805,-2.70784 -2.53454,0 -3.99252,1.21502 -3.99252,2.29133 0,0.79855 0.65942,1.70149 2.88148,2.15284 0.59023,0.13888 1.87496,0.34688 2.56935,0.48576 2.2915,0.41663 3.57606,0.65982 4.86069,1.80557 0.79855,0.72912 1.49293,1.80524 1.49293,3.22875 0,2.01374 -1.80557,4.86068 -6.45801,4.86068 -0.76383,0 -3.61088,2e-5 -5.38158,-0.93741 0,0 -0.24296,0.93741 -1.14567,0.93741 -1.0763,0 -1.07642,-0.90237 -1.07642,-1.42317 v -2.81223 c 0,-0.62495 2.4e-4,-1.45831 1.21543,-1.45831 1.11103,0 1.14557,0.69422 1.18029,1.18029 0.0694,0.72912 0.27782,1.56248 1.8402,2.01383 1.35407,0.38192 3.12462,0.38189 3.40238,0.38189 3.19421,0 4.16667,-1.70126 4.16667,-2.60397 0,-1.42351 -1.56239,-2.22193 -2.60398,-2.46497 l -2.29133,-0.41651 c -3.05533,-0.55552 -3.92361,-0.72942 -5.10408,-1.5627 -0.90271,-0.65967 -1.80558,-1.70107 -1.80558,-3.22874 0,-2.2915 2.32633,-4.54856 6.28437,-4.54856 z m -96.58841,0.27802 h 5.38158 c 3.95804,0 6.49263,2.29159 6.49263,4.61781 0,2.01374 -1.80549,3.26343 -2.39572,3.61063 1.49294,1.11103 1.49293,2.22233 1.49293,3.99304 0,1.18047 1.7e-4,2.32595 0.86816,2.32595 0.31248,0 0.59005,-0.31236 0.62477,-0.97203 0.0347,-0.69439 0.4859,-1.0418 1.18029,-1.0418 0.86799,0 1.21543,0.48609 1.21543,1.11105 0,1.35406 -1.07618,3.02048 -3.02049,3.02048 -1.04159,0 -3.26388,-0.58986 -3.26388,-3.85351 v -1.35444 c 0,-0.65967 -4e-5,-2.22157 -3.33313,-2.22157 h -2.6386 v 5.03432 c 0.79855,0 1.66657,-5.3e-4 1.66657,1.0759 0,1.04159 -0.97224,1.0418 -1.45831,1.0418 h -2.81223 c -0.48608,0 -1.45831,-2.1e-4 -1.45831,-1.0418 0,-1.07631 0.86801,-1.0759 1.66656,-1.0759 V 150.4154 c -0.79855,0 -1.66656,-1.1e-4 -1.66656,-1.07642 0,-1.04159 0.97223,-1.04128 1.45831,-1.04128 z m 18.44952,0 h 11.80496 c 1.18047,0 1.45831,0.31256 1.45831,1.45831 v 1.70119 c 0,0.62495 -2.4e-4,1.45831 -1.21543,1.45831 -1.18047,0 -1.18029,-0.86808 -1.18029,-1.45831 v -1.0418 h -8.12457 v 4.72219 h 4.30516 c 0,-0.65967 2.5e-4,-1.49293 1.21543,-1.49293 1.18047,0 1.18029,0.86756 1.18029,1.45779 v 2.18746 c 0,0.59024 1.8e-4,1.45831 -1.18029,1.45831 -1.21518,0 -1.21543,-0.83325 -1.21543,-1.49293 h -4.30516 v 5.31234 h 8.85373 v -1.45831 c 0,-0.62495 -2.7e-4,-1.45831 1.21491,-1.45831 1.18047,0 1.1808,0.86808 1.1808,1.45831 v 2.1177 c 0,1.18047 -0.31256,1.45831 -1.45831,1.45831 h -12.53411 c -0.48608,0 -1.4578,-2.1e-4 -1.4578,-1.0418 0,-1.07631 0.83291,-1.0759 1.80506,-1.0759 V 150.4154 c -0.97215,0 -1.80506,-1.1e-4 -1.80506,-1.07642 0,-1.04159 0.97172,-1.04128 1.4578,-1.04128 z m 17.89451,0 h 6.42286 c 4.51356,0 7.32617,4.13184 7.32617,8.2982 0,4.30524 -2.95149,8.08943 -7.32617,8.08943 h -6.42286 c -0.45135,0 -1.45831,-2.1e-4 -1.45831,-1.0418 0,-1.07631 0.93755,-1.0759 1.63194,-1.0759 V 150.4154 c -0.69439,0 -1.63194,-1.1e-4 -1.63194,-1.07642 0,-1.04159 1.00696,-1.04128 1.45831,-1.04128 z m 20.94963,0 h 7.11739 c 0.48608,0 1.45831,1.1e-4 1.45831,1.07642 0,1.04159 -1.00695,1.04128 -1.45831,1.04128 h -2.3611 v 12.15223 h 2.3611 c 0.48608,0 1.45831,-5.3e-4 1.45831,1.0759 0,1.04159 -1.00695,1.0418 -1.45831,1.0418 h -7.11739 c -0.45136,0 -1.45831,-2.1e-4 -1.45831,-1.0418 0,-1.07631 0.97223,-1.0759 1.45831,-1.0759 h 2.36057 V 150.4154 h -2.36057 c -0.45136,0 -1.45831,2.6e-4 -1.45831,-1.04128 0,-1.07631 0.97223,-1.07642 1.45831,-1.07642 z m 15.32464,0 h 12.95063 c 1.18047,0 1.45831,0.31256 1.45831,1.45831 v 1.70119 c 0,0.62495 -2.4e-4,1.45831 -1.21543,1.45831 -1.18047,0 -1.18029,-0.86808 -1.18029,-1.45831 v -1.0418 h -4.3403 v 12.15223 h 0.90279 c 0.52079,0 1.45831,-5.3e-4 1.45831,1.0759 0,1.04159 -0.97224,1.0418 -1.45831,1.0418 h -4.20078 c -0.5208,0 -1.45831,-1.1e-4 -1.45831,-1.07642 0,-1.04159 0.97223,-1.04128 1.45831,-1.04128 h 0.90279 V 150.4154 h -4.34031 v 1.0418 c 0,0.62495 2.7e-4,1.45831 -1.21491,1.45831 -1.18047,0 -1.18081,-0.86808 -1.18081,-1.45831 v -1.70119 c 0,-1.18047 0.31256,-1.45831 1.45831,-1.45831 z m -70.01433,2.1177 v 4.9997 h 2.46497 c 2.74285,0 4.40955,-1.24969 4.40955,-2.49959 0,-1.24991 -1.6667,-2.50011 -4.40955,-2.50011 z m 36.30941,0 v 12.15223 h 3.19412 c 3.74973,0 5.58984,-3.19425 5.58984,-5.9371 0,-2.91646 -1.87483,-6.21513 -5.58984,-6.21513 z"
         style="opacity:1;fill:#9a7676;fill-opacity:0.97115383;fill-rule:evenodd;stroke:none;stroke-width:1.01957858;stroke-miterlimit:4;stroke-dasharray:none;stroke-opacity:0.125" />
      <path
         style="opacity:1;fill:#c8b7b7;fill-opacity:0.44711543;fill-rule:evenodd;stroke:none;stroke-width:1.01957846;stroke-miterlimit:4;stroke-dasharray:none;stroke-opacity:0.125"
         d="m -232.08871,141.29419 c -2.70331,0 -4.87957,1.59961 -4.87957,3.58652 0,1.98691 2.17626,3.58651 4.87957,3.58651 h 129.79802 c 2.70331,0 4.88004,-1.5996 4.88004,-3.58651 0,-1.98691 -2.17673,-3.58652 -4.88004,-3.58652 z"
         id="path1381"
         inkscape:connector-curvature="0" />
    </g>
  </g>
</svg>
